<svg width="16" height="16" viewBox="0 0 16 16" fill="none" xmlns="http://www.w3.org/2000/svg">
<g id="Icons / tg">
<path id="Vector" d="M4.72257 8.8432L11.3372 4.6426L11.341 4.6402L11.4563 4.8302L11.3411 4.64019L11.3412 4.64013L11.3414 4.64L11.342 4.63968L11.3435 4.63877L11.3481 4.636L11.3637 4.62705C11.3766 4.61976 11.3946 4.60988 11.4161 4.59893C11.4576 4.57782 11.5185 4.5494 11.5835 4.52931C11.6368 4.51283 11.7421 4.48542 11.8466 4.51895C11.9089 4.53893 11.9713 4.5809 12.0119 4.65142C12.0353 4.69199 12.0468 4.734 12.0515 4.77353C12.0689 4.82585 12.0681 4.87994 12.0557 4.92935C12.0305 5.03002 11.954 5.12627 11.8441 5.22879C11.6494 5.41071 7.18941 9.71662 6.68424 10.2043L6.68292 10.2056L5.9473 13.0126L5.75834 13.7336C6.06458 13.7234 6.33385 13.5345 6.44998 13.2563L6.46541 13.2194L6.49275 13.1902L8.01784 11.5594L8.15546 11.4123L8.31535 11.5349L10.9132 13.5265L10.9256 13.5319C10.9256 13.5319 10.9256 13.5319 10.9256 13.5319C11.1324 13.6222 11.3136 13.6458 11.4703 13.6244C11.6269 13.603 11.7516 13.5376 11.847 13.4613L11.847 13.4613C11.9418 13.3855 12.0081 13.2987 12.0504 13.2318L12.0505 13.2317C12.0717 13.1983 12.0873 13.1691 12.098 13.1477C12.103 13.1375 12.107 13.1289 12.11 13.1222L12.1137 13.1137L12.1141 13.1128L12.1141 13.1128L4.72257 8.8432ZM4.72257 8.8432C4.72255 8.84321 4.72254 8.84321 4.72253 8.84322L4.72257 8.8432ZM12.1143 13.1122L12.1165 13.1131L12.1169 13.1112L12.1151 13.1105M12.1143 13.1122L12.3329 13.164L12.1741 13.1325M12.1143 13.1122L12.1151 13.1105M12.1143 13.1122L12.1151 13.1105M12.1151 13.1105L12.1154 13.1097L12.1155 13.1095L12.1171 13.1101L12.1173 13.1092L12.1741 13.1325M12.1741 13.1325L12.1679 13.1313L12.1665 13.131L12.1697 13.1324M12.1741 13.1325L12.3213 13.193L12.1996 13.1443L12.1697 13.1324M12.1697 13.1324L12.1661 13.1309L12.1507 13.1279L12.1684 13.1355L12.2114 13.154M12.1697 13.1324L12.267 13.1734L12.3202 13.1959L12.2114 13.154M12.2114 13.154L12.1858 13.1442M12.2114 13.154L12.3184 13.2001L12.1858 13.1442M12.1858 13.1442L12.144 13.1265L12.1357 13.1249M12.1858 13.1442L12.1357 13.1249M12.1357 13.1249L12.1157 13.1172M12.1357 13.1249L12.115 13.1208L12.1157 13.1172M12.1157 13.1172L12.116 13.1154L12.1162 13.1148L12.1137 13.1137L12.1135 13.1144L12.1128 13.1161L12.1157 13.1172ZM12.1153 13.1097L12.1153 13.1097L4.84166 9.03082C4.76814 9.07748 4.73328 9.16642 4.75548 9.25062L4.5406 9.30726L4.5406 9.30727L5.51745 13.0129L5.70745 13.7336C5.36475 13.7227 5.0682 13.488 4.98028 13.1545L4.00344 9.44892C3.97695 9.34842 3.96709 9.24684 3.97245 9.1473L3.98153 8.97863L3.82145 8.92474L1.87555 8.26964L1.87522 8.26952L1.87523 8.2695L1.87246 8.26848L1.8676 8.2667L1.85238 8.26069L1.85123 8.26022C1.83756 8.25466 1.81872 8.24661 1.7963 8.23592L1.79612 8.23583C1.751 8.21436 1.69007 8.1818 1.62718 8.13727L1.6271 8.13721C1.5042 8.05025 1.35577 7.90465 1.32919 7.69216C1.30008 7.45942 1.4702 7.29642 1.60421 7.20461C1.67456 7.15645 1.74538 7.12047 1.79799 7.09664L1.79825 7.09652C1.82458 7.08455 1.84683 7.07546 1.86285 7.06922L1.88003 7.06274L1.88004 7.06276L1.88267 7.06179L1.88574 7.06065L1.88576 7.0607L1.89003 7.05902L13.0366 2.6864L13.0366 2.68647L13.0417 2.68433L13.0492 2.68114C13.0494 2.68105 13.0497 2.68096 13.0499 2.68087C13.0576 2.67767 13.0681 2.67342 13.081 2.6684C13.108 2.65797 13.1459 2.64406 13.1914 2.6296L13.1914 2.62959C13.2814 2.60093 13.4052 2.56869 13.5319 2.55907C13.6559 2.54967 13.7999 2.56051 13.9161 2.63619L13.9161 2.6362C14.0402 2.71696 14.1099 2.85611 14.1099 3.05186V3.06278L12.119 13.1006L12.1158 13.1086L12.1153 13.1097ZM11.9858 13.6348C12.1051 13.5394 12.1868 13.4317 12.2381 13.3507L11.5003 13.8446C11.7033 13.8169 11.8647 13.7317 11.9858 13.6348Z" fill="#4B1E78" stroke="#4B1E78" stroke-width="0.444444"/>
</g>
</svg>
