<svg width="16" height="16" viewBox="0 0 16 16" fill="none" xmlns="http://www.w3.org/2000/svg">
<mask id="path-1-inside-1_596_288" fill="white">
<path fill-rule="evenodd" clip-rule="evenodd" d="M8.29322 14.7176C9.36389 13.3842 13 8.6825 13 6.32764C13 3.56621 10.7614 1.32764 8 1.32764C5.23858 1.32764 3 3.56621 3 6.32764C3 8.6825 6.63611 13.3842 7.70678 14.7176C7.85932 14.9076 8.14068 14.9076 8.29322 14.7176ZM8 7.57764C9.10457 7.57764 10 6.68221 10 5.57764C10 4.47307 9.10457 3.57764 8 3.57764C6.89543 3.57764 6 4.47307 6 5.57764C6 6.68221 6.89543 7.57764 8 7.57764Z"/>
</mask>
<path fill-rule="evenodd" clip-rule="evenodd" d="M8.29322 14.7176C9.36389 13.3842 13 8.6825 13 6.32764C13 3.56621 10.7614 1.32764 8 1.32764C5.23858 1.32764 3 3.56621 3 6.32764C3 8.6825 6.63611 13.3842 7.70678 14.7176C7.85932 14.9076 8.14068 14.9076 8.29322 14.7176ZM8 7.57764C9.10457 7.57764 10 6.68221 10 5.57764C10 4.47307 9.10457 3.57764 8 3.57764C6.89543 3.57764 6 4.47307 6 5.57764C6 6.68221 6.89543 7.57764 8 7.57764Z" fill="white"/>
<path d="M8.29322 14.7176L7.80589 14.3263L7.80589 14.3263L8.29322 14.7176ZM7.70678 14.7176L7.21944 15.1089L7.21944 15.1089L7.70678 14.7176ZM12.375 6.32764C12.375 6.78044 12.193 7.41692 11.8454 8.18753C11.5047 8.94274 11.0339 9.76507 10.521 10.5698C9.49602 12.1783 8.3355 13.6667 7.80589 14.3263L8.78056 15.1089C9.32162 14.4351 10.5145 12.906 11.5752 11.2416C12.1052 10.4098 12.6103 9.53185 12.9848 8.70152C13.3525 7.88658 13.625 7.05227 13.625 6.32764H12.375ZM8 1.95264C10.4162 1.95264 12.375 3.91139 12.375 6.32764H13.625C13.625 3.22103 11.1066 0.702637 8 0.702637V1.95264ZM3.625 6.32764C3.625 3.91139 5.58375 1.95264 8 1.95264V0.702637C4.8934 0.702637 2.375 3.22103 2.375 6.32764H3.625ZM8.19411 14.3263C7.6645 13.6667 6.50398 12.1783 5.47896 10.5698C4.96614 9.76507 4.49526 8.94274 4.15459 8.18753C3.80697 7.41692 3.625 6.78044 3.625 6.32764H2.375C2.375 7.05227 2.64754 7.88658 3.01515 8.70152C3.38971 9.53185 3.89478 10.4098 4.42481 11.2416C5.48551 12.906 6.67839 14.4351 7.21944 15.1089L8.19411 14.3263ZM7.80589 14.3263C7.90353 14.2047 8.09647 14.2047 8.19411 14.3263L7.21944 15.1089C7.62217 15.6105 8.37783 15.6105 8.78056 15.1089L7.80589 14.3263ZM9.375 5.57764C9.375 6.33703 8.75939 6.95264 8 6.95264V8.20264C9.44975 8.20264 10.625 7.02738 10.625 5.57764H9.375ZM8 4.20264C8.75939 4.20264 9.375 4.81825 9.375 5.57764H10.625C10.625 4.12789 9.44975 2.95264 8 2.95264V4.20264ZM6.625 5.57764C6.625 4.81825 7.24061 4.20264 8 4.20264V2.95264C6.55025 2.95264 5.375 4.12789 5.375 5.57764H6.625ZM8 6.95264C7.24061 6.95264 6.625 6.33703 6.625 5.57764H5.375C5.375 7.02738 6.55025 8.20264 8 8.20264V6.95264Z" fill="white" mask="url(#path-1-inside-1_596_288)"/>
</svg>
