<svg width="16" height="17" viewBox="0 0 16 17" fill="none" xmlns="http://www.w3.org/2000/svg">
<path d="M8.00006 2.49988C4.69162 2.49988 2 5.19144 2 8.49982C2 11.8084 4.69162 14.5001 8.00006 14.5001C11.3084 14.5001 14 11.8084 14 8.49982C14 5.19144 11.3084 2.49988 8.00006 2.49988ZM8.00006 13.64C5.16589 13.64 2.86011 11.3341 2.86011 8.49982C2.86011 5.66571 5.16589 3.35999 8.00006 3.35999C10.8342 3.35999 13.1399 5.66571 13.1399 8.49982C13.1399 11.3341 10.8342 13.64 8.00006 13.64Z" fill="black"/>
<path d="M11.0853 8.39955H8.2656V5.31738C8.2656 5.07988 8.0731 4.88733 7.83554 4.88733C7.59804 4.88733 7.40549 5.07988 7.40549 5.31738V8.82961C7.40549 9.06711 7.59804 9.25966 7.83554 9.25966H11.0853C11.3228 9.25966 11.5153 9.06711 11.5153 8.82961C11.5153 8.5921 11.3228 8.39955 11.0853 8.39955Z" fill="black"/>
</svg>
