<svg width="32" height="33" viewBox="0 0 32 33" fill="none" xmlns="http://www.w3.org/2000/svg">
<path fill-rule="evenodd" clip-rule="evenodd" d="M26.7391 8.63799L16.3036 3.55134C15.0985 2.96395 13.6455 3.46467 13.0581 4.66973L5.05247 21.0935C4.46508 22.2986 4.9658 23.7516 6.17086 24.339L16.6063 29.4257C17.8114 30.0131 19.2645 29.5124 19.8519 28.3073L27.8574 11.8835C28.4448 10.6785 27.9441 9.22539 26.7391 8.63799ZM16.6273 2.88727C15.0555 2.1211 13.1601 2.77421 12.394 4.34604L4.3884 20.7698C3.62223 22.3416 4.27534 24.2369 5.84717 25.0031L16.2826 30.0898C17.8545 30.8559 19.7498 30.2028 20.5159 28.631L28.5215 12.2072C29.2877 10.6354 28.6346 8.74009 27.0628 7.97392L16.6273 2.88727Z" fill="black" fill-opacity="0.25"/>
<circle cx="17.5513" cy="18.3166" r="2.96825" transform="rotate(90 17.5513 18.3166)" fill="black"/>
<path fill-rule="evenodd" clip-rule="evenodd" d="M13.9896 17.6637C14.0212 16.0517 15.3378 14.7547 16.9573 14.7547C17.1603 14.7547 17.3586 14.7751 17.5502 14.814C17.5506 14.7942 17.5508 14.7745 17.5508 14.7546C17.5508 13.1153 16.2218 11.7864 14.5825 11.7864C12.9432 11.7864 11.6143 13.1153 11.6143 14.7546C11.6143 16.1909 12.6344 17.3889 13.9896 17.6637Z" fill="black"/>
</svg>
