<svg width="16" height="16" viewBox="0 0 16 16" fill="none" xmlns="http://www.w3.org/2000/svg">
<path fill-rule="evenodd" clip-rule="evenodd" d="M9.33594 6.66732L10.0026 3.92065C10.0779 3.6154 10.0834 3.29708 10.0184 2.98945C9.95347 2.68182 9.81987 2.39285 9.62754 2.14412C9.4352 1.89539 9.1892 1.69333 8.9078 1.55305C8.6264 1.41276 8.317 1.33788 8.0026 1.33398L5.7026 5.92732C5.59222 6.14946 5.42205 6.3364 5.21124 6.46713C5.16716 6.49447 5.12166 6.51912 5.075 6.54102V14.6673H11.6693C11.9577 14.6673 12.2385 14.5737 12.4693 14.4007C12.7001 14.2276 12.8685 13.9843 12.9493 13.7073L14.5026 8.37398C14.5605 8.17525 14.5715 7.96578 14.5344 7.76212C14.4974 7.55845 14.4135 7.36625 14.2893 7.20065C14.1651 7.03505 14.004 6.90065 13.8189 6.80805C13.6337 6.71552 13.4296 6.66732 13.2226 6.66732H9.33594ZM4.25 14.6673V6.66732H2.66927C2.31565 6.66732 1.97651 6.80778 1.72646 7.05785C1.47641 7.30792 1.33594 7.64705 1.33594 8.00065V13.334C1.33594 13.6876 1.47641 14.0267 1.72646 14.2768C1.97651 14.5269 2.31565 14.6673 2.66927 14.6673H4.25Z" fill="black"/>
</svg>
