<svg width="110" height="26" viewBox="0 0 110 26" fill="none" xmlns="http://www.w3.org/2000/svg">
<path d="M13.5461 23.6442C11.52 23.6446 9.53918 23.0205 7.85431 21.8509C6.16944 20.6812 4.85617 19.0185 4.0806 17.073C3.30504 15.1276 3.10201 12.9868 3.4972 10.9214C3.89238 8.85604 4.86804 6.95885 6.30076 5.46981C7.73348 3.98077 9.55891 2.96677 11.5462 2.55604C13.5334 2.14532 15.5933 2.35633 17.4651 3.16238C19.337 3.96844 20.9368 5.33333 22.0622 7.08443C23.1877 8.83553 23.7882 10.8942 23.7878 13C23.7878 15.823 22.7087 18.5304 20.7881 20.5266C18.8674 22.5228 16.2624 23.6442 13.5461 23.6442ZM13.5461 1C11.2625 1 9.0302 1.70379 7.13145 3.02236C5.2327 4.34094 3.7528 6.21509 2.8789 8.4078C2.005 10.6005 1.77635 13.0133 2.22186 15.3411C2.66737 17.6689 3.76703 19.807 5.38179 21.4853C6.99655 23.1635 9.05387 24.3064 11.2936 24.7694C13.5333 25.2324 15.8549 24.9948 17.9647 24.0865C20.0744 23.1783 21.8777 21.6402 23.1464 19.6668C24.4151 17.6934 25.0923 15.3734 25.0923 13C25.0923 9.8174 23.8758 6.76515 21.7105 4.51472C19.5452 2.26428 16.6084 1 13.5461 1Z" fill="white"/>
<path d="M17.3754 15.299C17.3381 15.368 17.2881 15.4288 17.2281 15.4777C17.1682 15.5266 17.0996 15.5627 17.0262 15.5841C16.9528 15.6054 16.8761 15.6114 16.8005 15.6019C16.7248 15.5924 16.6518 15.5674 16.5854 15.5285L15.1675 14.6864V13.9811L15.7549 13.6337L17.1627 14.4758C17.2954 14.5552 17.3923 14.686 17.4322 14.8395C17.4721 14.9931 17.4516 15.1569 17.3754 15.2948M14.2093 13.4L13.547 13.7958L12.8825 13.3979V12.6021L13.547 12.2043L14.2093 12.6021V13.4ZM12.9696 9.00215C12.965 8.92051 12.9764 8.83874 13.0033 8.76186C13.0301 8.68499 13.0718 8.61463 13.1258 8.55511C13.1798 8.49559 13.2449 8.44817 13.3171 8.41576C13.3894 8.38334 13.4673 8.36662 13.5459 8.36662C13.6246 8.36662 13.7025 8.38334 13.7747 8.41576C13.847 8.44817 13.9121 8.49559 13.9661 8.55511C14.02 8.61463 14.0617 8.68499 14.0886 8.76186C14.1154 8.83874 14.1269 8.92051 14.1222 9.00215V10.6864L13.547 11.0421L12.9696 10.6864V9.00215ZM11.9123 14.6716L10.4943 15.5137C10.4285 15.5594 10.3544 15.5904 10.2765 15.6049C10.1987 15.6194 10.1188 15.617 10.0418 15.598C9.96485 15.579 9.89251 15.5436 9.82929 15.4942C9.76607 15.4448 9.71333 15.3824 9.67437 15.3108C9.63541 15.2393 9.61107 15.1602 9.60286 15.0784C9.59465 14.9966 9.60276 14.914 9.62667 14.8356C9.65058 14.7573 9.68979 14.6849 9.74183 14.623C9.79388 14.5611 9.85765 14.511 9.92917 14.4758L11.3471 13.6337L11.9224 13.9811L11.9123 14.6716ZM21.9371 17.8443L20.2599 15.8085C20.2384 15.7842 20.2139 15.7629 20.187 15.7453C20.1455 15.7226 20.0992 15.7108 20.0523 15.7108C20.0054 15.7108 19.9591 15.7226 19.9176 15.7453C19.7866 15.809 19.6427 15.8391 19.4981 15.8328C19.3536 15.8266 19.2126 15.7843 19.0871 15.7095C18.9753 15.6432 18.8788 15.5523 18.8043 15.4432C18.7298 15.3341 18.679 15.2095 18.6556 15.0779C18.5955 14.7435 18.4665 14.4266 18.2773 14.1489C18.0881 13.8712 17.8433 13.6395 17.5597 13.4695L16.8103 13.0021L21.0783 10.44L20.5516 9.48847L15.7549 12.3706L15.1776 12.0253V11.3285L19.9743 8.45268L19.4456 7.5011L15.1776 10.0548V9.16004C15.1783 8.82023 15.1078 8.48433 14.9711 8.17567C14.8343 7.86702 14.6345 7.59301 14.3856 7.37268C14.2813 7.27993 14.199 7.16351 14.1449 7.03242C14.0908 6.90133 14.0665 6.75907 14.0737 6.61664C14.0809 6.47421 14.1196 6.33542 14.1867 6.21098C14.2537 6.08655 14.3474 5.9798 14.4605 5.89899C14.4995 5.87156 14.5314 5.83452 14.5533 5.79118C14.5753 5.74784 14.5865 5.69953 14.5861 5.65057C14.5855 5.61778 14.5807 5.58522 14.5719 5.55373L13.7151 3.02741C13.7033 2.9905 13.6806 2.95839 13.6502 2.93564C13.6199 2.91288 13.5834 2.90063 13.5459 2.90063C13.5085 2.90063 13.472 2.91288 13.4417 2.93564C13.4113 2.95839 13.3886 2.9905 13.3768 3.02741L12.52 5.55373C12.5102 5.58499 12.5054 5.6177 12.5058 5.65057C12.5054 5.69953 12.5166 5.74784 12.5385 5.79118C12.5605 5.83452 12.5923 5.87156 12.6314 5.89899C12.7443 5.97997 12.8379 6.08685 12.9047 6.21138C12.9716 6.3359 13.0101 6.47474 13.0171 6.61716C13.0242 6.75959 12.9996 6.90179 12.9454 7.03279C12.8911 7.16379 12.8087 7.28008 12.7043 7.37268C12.4558 7.59337 12.2563 7.86746 12.1196 8.17603C11.9828 8.4846 11.9121 8.82032 11.9123 9.16004V10.0548L7.64627 7.5011L7.11758 8.45268L11.9123 11.3285V12.0211L11.337 12.3706L6.54027 9.48847L6.01361 10.44L10.2796 13.0021L9.53011 13.4527C9.24628 13.6223 9.00128 13.854 8.81206 14.1317C8.62285 14.4094 8.49394 14.7265 8.43424 15.0611C8.41119 15.1925 8.36082 15.3171 8.28665 15.4262C8.21248 15.5353 8.11629 15.6262 8.00481 15.6927C7.8793 15.7675 7.73831 15.8098 7.59376 15.816C7.44921 15.8222 7.30533 15.7922 7.1743 15.7285C7.13275 15.7058 7.08652 15.6939 7.03959 15.6939C6.99266 15.6939 6.94644 15.7058 6.90489 15.7285C6.87802 15.7461 6.85351 15.7673 6.83197 15.7916L5.15474 17.8253C5.12942 17.8544 5.11365 17.8911 5.10969 17.9301C5.10574 17.9692 5.1138 18.0085 5.13272 18.0424C5.15165 18.0764 5.18045 18.1032 5.21499 18.119C5.24952 18.1349 5.288 18.1389 5.32489 18.1306L7.85694 17.6379C7.91926 17.6259 7.97596 17.5928 8.01814 17.5436C8.06031 17.4944 8.08555 17.4321 8.08989 17.3664C8.10148 17.2167 8.14791 17.0721 8.22519 16.9452C8.30247 16.8184 8.40828 16.7129 8.5335 16.6379C8.64563 16.5729 8.77008 16.5341 8.89814 16.5243C9.02621 16.5145 9.15479 16.5339 9.27488 16.5811C9.58365 16.6939 9.91225 16.7359 10.2381 16.7043C10.564 16.6727 10.8794 16.5682 11.1628 16.3979L11.9123 15.9495V21.0611H12.9696V15.3053L13.547 14.96L14.1222 15.3053V21.0611H15.1776V15.9495L15.9291 16.3979C16.2125 16.5682 16.5279 16.6727 16.8538 16.7043C17.1796 16.7359 17.5082 16.6939 17.817 16.5811C17.9381 16.5361 18.0672 16.5191 18.1953 16.5315C18.3234 16.5439 18.4473 16.5852 18.5584 16.6527C18.6836 16.7276 18.7894 16.8331 18.8667 16.96C18.944 17.0869 18.9904 17.2314 19.002 17.3811C19.0056 17.4299 19.0205 17.4771 19.0456 17.5185C19.0706 17.56 19.105 17.5945 19.1458 17.619C19.1736 17.6351 19.2037 17.6465 19.2349 17.6527L21.767 18.1453C21.8036 18.1526 21.8415 18.148 21.8756 18.1322C21.9096 18.1164 21.9382 18.0901 21.9574 18.0569C21.9748 18.0238 21.9822 17.9859 21.9786 17.9484C21.975 17.9108 21.9605 17.8752 21.9371 17.8464" fill="white"/>
<path d="M90.4108 10.56H86.558V2.55371H83.0395V23.44H86.558V14.2674H90.4108V23.44H94.0083V2.55371H90.4108V10.56Z" fill="white"/>
<path d="M36.236 2.55371L33.5763 10.6906L31.1699 2.55371H27.6595L31.5669 15.36V23.44H35.4764V14.9453L39.5256 2.55371H36.236Z" fill="white"/>
<path d="M59.9214 12.4884L57.9666 2.55371H52.4711V23.44H55.623V7.69476L58.311 21.3832H61.2543L63.6384 7.47371V23.44H67.3332V2.55371H61.6067L59.9214 12.4884Z" fill="white"/>
<path d="M100.208 15.1032L101.705 5.76213L103.159 15.1032H100.208ZM104.729 2.55371H99.2862L95.6137 23.44H98.8709L99.6487 18.579H103.7L104.454 23.44H108.043L104.729 2.55371Z" fill="white"/>
<path d="M73.5322 15.1032L75.0292 5.76213L76.4836 15.1032H73.5322ZM72.6105 2.55371L68.936 23.44H72.1933L72.9731 18.579H77.0244L77.78 23.44H81.3674L78.0514 2.55371H72.6105Z" fill="white"/>
<path d="M42.9638 15.1032L44.4628 5.76213L45.9152 15.1032H42.9638ZM42.0422 2.55371L38.3677 23.44H41.6269L42.4068 18.579H46.4581L47.2157 23.44H50.8031L47.4851 2.55371H42.0422Z" fill="white"/>
</svg>
