<svg width="30" height="30" viewBox="0 0 30 30" fill="none" xmlns="http://www.w3.org/2000/svg">
<path d="M15 28.3053C12.3677 28.3058 9.79442 27.5257 7.60554 26.0636C5.41667 24.6015 3.71056 22.5231 2.70299 20.0913C1.69542 17.6595 1.43166 14.9835 1.94506 12.4018C2.45846 9.82005 3.72597 7.44857 5.58727 5.58727C7.44857 3.72596 9.82005 2.45846 12.4018 1.94505C14.9835 1.43165 17.6595 1.69541 20.0913 2.70298C22.5231 3.71055 24.6015 5.41666 26.0636 7.60554C27.5257 9.79441 28.3058 12.3677 28.3053 15C28.3053 18.5288 26.9035 21.913 24.4082 24.4082C21.913 26.9035 18.5288 28.3053 15 28.3053ZM15 0C12.0333 0 9.13319 0.879734 6.66645 2.52796C4.19971 4.17618 2.27713 6.51886 1.14181 9.25975C0.00649929 12.0006 -0.290551 15.0166 0.288227 17.9264C0.867006 20.8361 2.29562 23.5088 4.3934 25.6066C6.49119 27.7044 9.16394 29.133 12.0737 29.7118C14.9834 30.2906 17.9994 29.9935 20.7403 28.8582C23.4811 27.7229 25.8238 25.8003 27.472 23.3335C29.1203 20.8668 30 17.9667 30 15C30 11.0218 28.4196 7.20644 25.6066 4.3934C22.7936 1.58035 18.9783 0 15 0Z" fill="white"/>
<path d="M19.9725 17.8742C19.924 17.9605 19.859 18.0364 19.7812 18.0975C19.7033 18.1587 19.6142 18.2039 19.5188 18.2305C19.4235 18.2571 19.3238 18.2647 19.2256 18.2528C19.1273 18.2409 19.0324 18.2097 18.9462 18.161L17.1041 17.1084V16.2268L17.8672 15.7926L19.6962 16.8452C19.8685 16.9444 19.9944 17.1079 20.0462 17.2999C20.0981 17.4918 20.0715 17.6965 19.9725 17.8689M15.8593 15.5005L14.9988 15.9952L14.1356 15.4979V14.5031L14.9988 14.0057L15.8593 14.5031V15.5005ZM14.2488 10.0031C14.2427 9.90106 14.2576 9.79885 14.2925 9.70276C14.3274 9.60666 14.3816 9.51872 14.4517 9.44432C14.5218 9.36992 14.6064 9.31064 14.7002 9.27012C14.7941 9.22961 14.8953 9.20871 14.9975 9.20871C15.0997 9.20871 15.2009 9.22961 15.2947 9.27012C15.3886 9.31064 15.4732 9.36992 15.5433 9.44432C15.6134 9.51872 15.6676 9.60666 15.7025 9.70276C15.7373 9.79885 15.7522 9.90106 15.7462 10.0031V12.1084L14.9988 12.5531L14.2488 12.1084V10.0031ZM12.8751 17.09L11.033 18.1426C10.9475 18.1996 10.8512 18.2384 10.7501 18.2565C10.6489 18.2747 10.5451 18.2717 10.4451 18.2479C10.3452 18.2241 10.2512 18.18 10.169 18.1182C10.0869 18.0565 10.0184 17.9784 9.96779 17.889C9.91717 17.7996 9.88555 17.7006 9.87489 17.5984C9.86422 17.4962 9.87475 17.3929 9.90582 17.295C9.93688 17.197 9.98782 17.1065 10.0554 17.0291C10.123 16.9517 10.2059 16.8891 10.2988 16.8452L12.1409 15.7926L12.8883 16.2268L12.8751 17.09ZM25.8988 21.0557L23.7199 18.511C23.6919 18.4807 23.66 18.4541 23.6251 18.4321C23.5711 18.4037 23.5111 18.3889 23.4501 18.3889C23.3891 18.3889 23.3291 18.4037 23.2751 18.4321C23.1049 18.5117 22.918 18.5493 22.7302 18.5415C22.5424 18.5337 22.3592 18.4808 22.1962 18.3873C22.051 18.3044 21.9256 18.1908 21.8288 18.0545C21.732 17.9181 21.6661 17.7623 21.6356 17.5979C21.5576 17.1798 21.3899 16.7836 21.1441 16.4366C20.8984 16.0895 20.5804 15.7998 20.212 15.5873L19.2383 15.0031L24.783 11.8005L24.0988 10.611L17.8672 14.2136L17.1172 13.7821V12.911L23.3488 9.31627L22.662 8.1268L17.1172 11.3189V10.2005C17.1181 9.77571 17.0266 9.35584 16.8489 8.97002C16.6712 8.5842 16.4117 8.24168 16.0883 7.96627C15.9528 7.85034 15.8458 7.70482 15.7756 7.54095C15.7053 7.37709 15.6737 7.19927 15.6831 7.02123C15.6925 6.84319 15.7427 6.6697 15.8299 6.51416C15.917 6.35861 16.0387 6.22518 16.1856 6.12417C16.2363 6.08988 16.2778 6.04358 16.3062 5.9894C16.3347 5.93522 16.3493 5.87484 16.3488 5.81364C16.348 5.77266 16.3418 5.73195 16.3304 5.69259L15.2172 2.53469C15.2019 2.48855 15.1724 2.44842 15.1329 2.41997C15.0935 2.39153 15.0461 2.37622 14.9975 2.37622C14.9489 2.37622 14.9015 2.39153 14.862 2.41997C14.8226 2.44842 14.7931 2.48855 14.7777 2.53469L13.6646 5.69259C13.6519 5.73166 13.6457 5.77255 13.6462 5.81364C13.6456 5.87484 13.6603 5.93522 13.6887 5.9894C13.7172 6.04358 13.7586 6.08988 13.8093 6.12417C13.9561 6.22539 14.0776 6.35899 14.1645 6.51465C14.2514 6.6703 14.3013 6.84385 14.3105 7.02188C14.3196 7.19991 14.2878 7.37767 14.2173 7.54142C14.1468 7.70517 14.0396 7.85053 13.9041 7.96627C13.5812 8.24215 13.3221 8.58475 13.1444 8.97046C12.9668 9.35618 12.8749 9.77583 12.8751 10.2005V11.3189L7.33301 8.1268L6.64617 9.31627L12.8751 12.911V13.7768L12.1277 14.2136L5.89617 10.611L5.21196 11.8005L10.7541 15.0031L9.78038 15.5663C9.41163 15.7783 9.09335 16.0679 8.84753 16.415C8.60172 16.7622 8.43425 17.1586 8.3567 17.5768C8.32675 17.7411 8.26131 17.8968 8.16495 18.0332C8.06859 18.1695 7.94364 18.2832 7.7988 18.3663C7.63575 18.4598 7.45259 18.5126 7.26479 18.5204C7.077 18.5282 6.89009 18.4907 6.71985 18.411C6.66588 18.3827 6.60582 18.3678 6.54485 18.3678C6.48389 18.3678 6.42383 18.3827 6.36985 18.411C6.33495 18.4331 6.3031 18.4596 6.27512 18.49L4.09617 21.0321C4.06328 21.0684 4.04279 21.1143 4.03765 21.1631C4.03251 21.2119 4.04299 21.261 4.06757 21.3034C4.09216 21.3459 4.12958 21.3794 4.17444 21.3992C4.21931 21.419 4.2693 21.4241 4.31722 21.4136L7.6067 20.7978C7.68765 20.7829 7.76133 20.7414 7.81612 20.6799C7.87091 20.6185 7.9037 20.5405 7.90933 20.4584C7.92438 20.2713 7.98471 20.0906 8.08511 19.932C8.18551 19.7734 8.32297 19.6415 8.48564 19.5478C8.63131 19.4665 8.79299 19.4181 8.95936 19.4058C9.12573 19.3935 9.29278 19.4177 9.4488 19.4768C9.84993 19.6178 10.2768 19.6704 10.7002 19.6308C11.1235 19.5913 11.5333 19.4607 11.9014 19.2479L12.8751 18.6873V25.0768H14.2488V17.8821L14.9988 17.4505L15.7462 17.8821V25.0768H17.1172V18.6873L18.0935 19.2479C18.4616 19.4607 18.8714 19.5913 19.2948 19.6308C19.7181 19.6704 20.145 19.6178 20.5462 19.4768C20.7035 19.4205 20.8713 19.3993 21.0377 19.4148C21.2041 19.4303 21.365 19.482 21.5093 19.5663C21.672 19.66 21.8095 19.7918 21.9099 19.9504C22.0103 20.109 22.0706 20.2897 22.0856 20.4768C22.0903 20.5378 22.1097 20.5968 22.1422 20.6486C22.1748 20.7004 22.2195 20.7435 22.2725 20.7742C22.3086 20.7943 22.3477 20.8086 22.3883 20.8163L25.6777 21.4321C25.7253 21.4412 25.7746 21.4354 25.8188 21.4157C25.863 21.3959 25.9001 21.363 25.9251 21.3215C25.9478 21.2801 25.9574 21.2328 25.9527 21.1859C25.948 21.1389 25.9292 21.0945 25.8988 21.0584" fill="white"/>
</svg>
