<svg width="10" height="10" viewBox="0 0 10 10" fill="none" xmlns="http://www.w3.org/2000/svg">
<path d="M8.7478 6.84142V8.31476C8.74785 8.42025 8.70788 8.52183 8.63597 8.599C8.56405 8.67618 8.46553 8.72321 8.3603 8.73059C8.17822 8.74309 8.02947 8.74976 7.91447 8.74976C4.23239 8.74976 1.2478 5.76517 1.2478 2.08309C1.2478 1.96809 1.25405 1.81934 1.26697 1.63726C1.27435 1.53202 1.32138 1.43351 1.39855 1.36159C1.47573 1.28968 1.57731 1.24971 1.6828 1.24976H3.15614C3.20782 1.2497 3.25768 1.26886 3.29602 1.30351C3.33437 1.33816 3.35847 1.38583 3.36364 1.43726C3.37322 1.53309 3.38197 1.60934 3.3903 1.66726C3.4731 2.24514 3.6428 2.80719 3.89364 3.33434C3.93322 3.41767 3.90739 3.51726 3.83239 3.57059L2.93322 4.21309C3.48299 5.49411 4.50386 6.51498 5.78489 7.06476L6.42655 6.16726C6.45278 6.13059 6.49104 6.10429 6.53468 6.09294C6.57831 6.0816 6.62454 6.08593 6.6653 6.10517C7.19239 6.35554 7.75429 6.52481 8.33197 6.60726C8.38989 6.61559 8.46614 6.62476 8.56114 6.63392C8.61248 6.63919 8.66005 6.66333 8.69462 6.70166C8.72918 6.74 8.74787 6.7898 8.7478 6.84142Z" fill="white"/>
</svg>
