<svg width="18" height="18" viewBox="0 0 18 18" fill="none" xmlns="http://www.w3.org/2000/svg">
<path d="M6.32234 14.8927C6.46442 14.8927 6.60068 14.8363 6.70114 14.7358C6.80161 14.6353 6.85805 14.4991 6.85805 14.357C6.85805 14.2149 6.80161 14.0787 6.70114 13.9782C6.60068 13.8777 6.46442 13.8213 6.32234 13.8213C6.18026 13.8213 6.04399 13.8777 5.94353 13.9782C5.84306 14.0787 5.78662 14.2149 5.78662 14.357C5.78662 14.4991 5.84306 14.6353 5.94353 14.7358C6.04399 14.8363 6.18026 14.8927 6.32234 14.8927Z" fill="white" stroke="white" stroke-width="0.914286" stroke-linecap="round" stroke-linejoin="round"/>
<path d="M13.8223 14.8927C13.9644 14.8927 14.1007 14.8363 14.2011 14.7358C14.3016 14.6353 14.358 14.4991 14.358 14.357C14.358 14.2149 14.3016 14.0787 14.2011 13.9782C14.1007 13.8777 13.9644 13.8213 13.8223 13.8213C13.6803 13.8213 13.544 13.8777 13.4435 13.9782C13.3431 14.0787 13.2866 14.2149 13.2866 14.357C13.2866 14.4991 13.3431 14.6353 13.4435 14.7358C13.544 14.8363 13.6803 14.8927 13.8223 14.8927Z" fill="white" stroke="white" stroke-width="0.914286" stroke-linecap="round" stroke-linejoin="round"/>
<path d="M2.03662 3.10706H4.17948L5.78662 12.2142H14.358" stroke="white" stroke-width="0.914286" stroke-linecap="round" stroke-linejoin="round"/>
<path d="M5.78662 10.0715H14.138C14.2001 10.0717 14.2603 10.0504 14.3083 10.0112C14.3564 9.97196 14.3894 9.91728 14.4016 9.85646L15.3659 5.03503H12.1588" stroke="white" stroke-width="0.914286" stroke-linecap="round" stroke-linejoin="round"/>
</svg>
