<svg width="19" height="18" viewBox="0 0 19 18" fill="none" xmlns="http://www.w3.org/2000/svg">
<path d="M16.7425 7.51844V14.9258C16.7425 15.1223 16.6645 15.3107 16.5256 15.4496C16.3867 15.5885 16.1983 15.6666 16.0018 15.6666H2.66848C2.47202 15.6666 2.28361 15.5885 2.14469 15.4496C2.00578 15.3107 1.92773 15.1223 1.92773 14.9258V7.51844H16.7425ZM16.7425 6.03696H1.92773V3.07399C1.92773 2.87754 2.00578 2.68913 2.14469 2.55021C2.28361 2.41129 2.47202 2.33325 2.66848 2.33325H16.0018C16.1983 2.33325 16.3867 2.41129 16.5256 2.55021C16.6645 2.68913 16.7425 2.87754 16.7425 3.07399V6.03696ZM11.5574 11.9629V13.4444H14.5203V11.9629H11.5574Z" fill="black"/>
</svg>
