<svg width="18" height="18" viewBox="0 0 18 18" fill="none" xmlns="http://www.w3.org/2000/svg">
<path fill-rule="evenodd" clip-rule="evenodd" d="M5.46311 13.3432C7.15557 13.3432 8.61654 12.3522 9.29738 10.9187H11.2083C11.5151 10.9187 11.7639 11.1675 11.7639 11.4743V12.7874C11.7639 13.0943 12.0126 13.343 12.3194 13.343H14.133C14.4398 13.343 14.6885 13.0943 14.6885 12.7874V11.4743C14.6885 11.1675 14.9373 10.9187 15.2441 10.9187H16.2221C16.5289 10.9187 16.7776 10.67 16.7776 10.3632V7.88845C16.7776 7.58163 16.5289 7.3329 16.2221 7.3329H9.32074C8.65038 5.87256 7.17518 4.8584 5.46311 4.8584C3.1201 4.8584 1.2207 6.75779 1.2207 9.10081C1.2207 11.4438 3.1201 13.3432 5.46311 13.3432ZM5.46297 10.5147C6.24397 10.5147 6.8771 9.88159 6.8771 9.10058C6.8771 8.31957 6.24397 7.68644 5.46297 7.68644C4.68196 7.68644 4.04883 8.31957 4.04883 9.10058C4.04883 9.88159 4.68196 10.5147 5.46297 10.5147Z" fill="black"/>
</svg>
