<svg width="18" height="18" viewBox="0 0 18 18" fill="none" xmlns="http://www.w3.org/2000/svg">
<path fill-rule="evenodd" clip-rule="evenodd" d="M11.666 5.02295V13.1633H12.252C12.2367 13.072 12.2287 12.9782 12.2287 12.8826C12.2287 11.9524 12.9828 11.1983 13.9129 11.1983C14.8431 11.1983 15.5972 11.9524 15.5972 12.8826C15.5972 12.9782 15.5892 13.072 15.5739 13.1633H15.8765C16.4966 13.1633 16.9993 12.6606 16.9993 12.0405V8.76564C16.9993 8.5227 16.9206 8.28631 16.7748 8.09195L14.8099 5.47207C14.5978 5.18934 14.265 5.02295 13.9116 5.02295H11.666ZM13.0707 8.67219V5.58447H14.0506C14.1404 5.58447 14.2248 5.62744 14.2776 5.70007L16.1149 8.22639C16.2499 8.41192 16.1173 8.67219 15.8879 8.67219H13.0707Z" fill="black"/>
<path fill-rule="evenodd" clip-rule="evenodd" d="M13.9127 14.0057C14.5328 14.0057 15.0355 13.5031 15.0355 12.8829C15.0355 12.2628 14.5328 11.7601 13.9127 11.7601C13.2926 11.7601 12.7899 12.2628 12.7899 12.8829C12.7899 13.5031 13.2926 14.0057 13.9127 14.0057ZM13.9127 14.5672C14.8429 14.5672 15.5969 13.8131 15.5969 12.8829C15.5969 11.9528 14.8429 11.1987 13.9127 11.1987C12.9826 11.1987 12.2285 11.9528 12.2285 12.8829C12.2285 13.8131 12.9826 14.5672 13.9127 14.5672Z" fill="black"/>
<path fill-rule="evenodd" clip-rule="evenodd" d="M5.49085 14.0057C6.11096 14.0057 6.61366 13.5031 6.61366 12.8829C6.61366 12.2628 6.11096 11.7601 5.49085 11.7601C4.87074 11.7601 4.36804 12.2628 4.36804 12.8829C4.36804 13.5031 4.87074 14.0057 5.49085 14.0057ZM5.49085 14.5672C6.42102 14.5672 7.17506 13.8131 7.17506 12.8829C7.17506 11.9528 6.42102 11.1987 5.49085 11.1987C4.56069 11.1987 3.80664 11.9528 3.80664 12.8829C3.80664 13.8131 4.56069 14.5672 5.49085 14.5672Z" fill="black"/>
<path fill-rule="evenodd" clip-rule="evenodd" d="M1.00195 3.90064C1.00195 3.28053 1.50465 2.77783 2.12476 2.77783H9.98441C10.6045 2.77783 11.1072 3.28053 11.1072 3.90064V12.3217C11.1072 12.9418 10.6045 13.4445 9.98441 13.4445H7.0804C7.14255 13.2688 7.17636 13.0797 7.17636 12.8827C7.17636 11.9526 6.42232 11.1985 5.49215 11.1985C4.56199 11.1985 3.80794 11.9526 3.80794 12.8827C3.80794 13.0797 3.84176 13.2688 3.90391 13.4445H2.12476C1.50465 13.4445 1.00195 12.9418 1.00195 12.3217V3.90064ZM9.35171 6.04215C9.55904 5.81598 9.54376 5.46455 9.31758 5.25722C9.09141 5.04989 8.73998 5.06517 8.53265 5.29135L5.80803 8.26366L4.2511 6.92915C4.01814 6.72947 3.66742 6.75645 3.46774 6.98941C3.26806 7.22237 3.29504 7.57309 3.528 7.77277L5.9009 9.80668L9.35171 6.04215Z" fill="black"/>
</svg>
