<svg width="24" height="24" viewBox="0 0 24 24" fill="none" xmlns="http://www.w3.org/2000/svg">
<path d="M10.7749 5.25038C10.0442 5.24186 9.31912 5.37842 8.64162 5.65214C7.96411 5.92585 7.34766 6.33129 6.82797 6.84496C6.30828 7.35863 5.89569 7.97032 5.61409 8.64458C5.3325 9.31885 5.1875 10.0423 5.1875 10.773C5.1875 11.5037 5.3325 12.2271 5.61409 12.9014C5.89569 13.5757 6.30828 14.1874 6.82797 14.701C7.34766 15.2147 7.96411 15.6201 8.64162 15.8939C9.31912 16.1676 10.0442 16.3041 10.7749 16.2956C12.2284 16.2787 13.6167 15.6894 14.6385 14.6555C15.6604 13.6217 16.2335 12.2266 16.2335 10.773C16.2335 9.31936 15.6604 7.92432 14.6385 6.89047C13.6167 5.85662 12.2284 5.26731 10.7749 5.25038Z" stroke="white" stroke-linecap="round"/>
<path d="M14.8945 14.8945L18.7518 18.7503" stroke="white" stroke-linecap="round"/>
</svg>
