<svg width="78" height="18" viewBox="0 0 78 18" fill="none" xmlns="http://www.w3.org/2000/svg">
<g clip-path="url(#clip0_896_11186)">
<path d="M40.0488 5.48194H37.4834L35.6681 8.53427H34.7336L34.7038 1.92847H32.2754V13.8588H34.7038L34.7336 10.5843H35.6621L38.0727 13.8588H40.7631L37.6203 9.51945L40.0488 5.48194Z" fill="#0A2540"/>
<path d="M58.4288 9.41143C57.9354 9.10595 57.4008 8.86642 56.8396 8.69959L56.3039 8.50597L56.1588 8.4539C55.8262 8.33458 55.4765 8.2091 55.4646 7.88522C55.4615 7.78905 55.4839 7.69372 55.5297 7.60809C55.5755 7.52246 55.6432 7.4493 55.7265 7.39549C55.9024 7.27952 56.1085 7.21247 56.3218 7.20187C56.7868 7.17114 57.2477 7.30267 57.6193 7.57202L57.6848 7.61188L58.9823 6.18253L58.9169 6.13128C58.7553 5.99349 58.5799 5.87141 58.3931 5.76682C58.0584 5.58363 57.6944 5.45471 57.3157 5.38527C56.7703 5.27425 56.2065 5.27425 55.661 5.38527C55.1337 5.45205 54.6334 5.64823 54.2088 5.95474C53.9372 6.15804 53.7102 6.41054 53.5407 6.6978C53.3711 6.9851 53.2624 7.30151 53.2207 7.62898C53.1463 8.21996 53.3032 8.81634 53.6611 9.30324C54.1367 9.80704 54.7584 10.1639 55.4468 10.3283L55.5539 10.3624L55.7979 10.4421C56.6789 10.7268 56.9289 10.8408 57.0717 11.0116C57.1381 11.0976 57.1755 11.2009 57.1788 11.3077C57.1788 11.712 56.661 11.8772 56.3099 11.9797C56.0643 12.0238 55.8119 12.0193 55.5682 11.9664C55.3246 11.9135 55.0949 11.8134 54.8933 11.6722C54.567 11.4634 54.2877 11.1943 54.0719 10.8806C54.0359 10.9166 53.9165 11.0307 53.7606 11.1798C53.3227 11.5984 52.596 12.2932 52.6136 12.31L52.6553 12.367C53.3035 13.1433 54.2116 13.6823 55.2266 13.8931C55.4585 13.9361 55.6931 13.9645 55.9289 13.9785H56.173C56.9747 13.9946 57.7603 13.7607 58.4109 13.3123C58.851 13.0144 59.1887 12.5982 59.3811 12.1164C59.4982 11.793 59.5397 11.4489 59.5026 11.1084C59.4656 10.768 59.351 10.4395 59.1669 10.146C58.9787 9.85339 58.727 9.60287 58.4288 9.41143Z" fill="#0A2540"/>
<path d="M64.6914 8.69944C65.2507 8.86633 65.7834 9.10579 66.2746 9.41128C66.5675 9.60272 66.8149 9.85105 67.0008 10.1401C67.1849 10.4336 67.2994 10.7622 67.3364 11.1026C67.3734 11.443 67.3323 11.7871 67.2151 12.1105C67.0226 12.5923 66.6849 13.0086 66.2449 13.3064C65.5942 13.7549 64.8086 13.9887 64.0069 13.9727H63.7628C63.527 13.959 63.2924 13.9305 63.0605 13.8873C62.0455 13.6764 61.1375 13.1375 60.4892 12.3611L60.4416 12.3041C60.4299 12.2892 61.004 11.7383 61.4377 11.322C61.6655 11.1034 61.8547 10.9219 61.8998 10.8748C62.1189 11.1859 62.3976 11.4545 62.7212 11.6664C62.9239 11.8077 63.1546 11.9079 63.3993 11.9608C63.6439 12.0136 63.8973 12.0181 64.1438 11.9738C64.495 11.8714 65.0068 11.7062 65.0068 11.3019C65.01 11.1949 64.9743 11.0902 64.9057 11.0058C64.7628 10.8349 64.5128 10.721 63.6259 10.4363L63.3819 10.3566L63.2807 10.3224C62.5923 10.158 61.9707 9.80117 61.4951 9.29736C61.1339 8.81194 60.9767 8.21434 61.0546 7.62311C61.0983 7.2957 61.209 6.97973 61.3806 6.6934C61.5522 6.40706 61.7812 6.15598 62.0546 5.95459C62.4803 5.64986 62.9801 5.45388 63.5069 5.38512C64.0543 5.27397 64.6201 5.27397 65.1675 5.38512C65.5443 5.45476 65.9063 5.58369 66.2389 5.76667C66.4285 5.86981 66.6061 5.99199 66.7687 6.13112L66.8282 6.18237L65.5306 7.61173L65.4711 7.57187C65.0991 7.30341 64.6385 7.17201 64.1735 7.20171C63.9603 7.21232 63.7542 7.27937 63.5783 7.39534C63.4968 7.45133 63.4302 7.52475 63.3837 7.6098C63.3371 7.69485 63.3121 7.78909 63.3105 7.88507C63.3283 8.20965 63.6735 8.33494 64.0128 8.45458L64.1497 8.50581L64.6914 8.69944Z" fill="#0A2540"/>
<path fill-rule="evenodd" clip-rule="evenodd" d="M48.0248 5.48207V6.3021H47.9177C47.2529 5.66531 46.3525 5.30515 45.4119 5.29984C44.8352 5.28894 44.2627 5.39435 43.7314 5.60923C43.2002 5.82411 42.7222 6.14362 42.3287 6.54698C41.5349 7.39741 41.1093 8.50505 41.1383 9.6449C41.1075 10.8038 41.5323 11.9317 42.3287 12.8054C42.7129 13.209 43.1834 13.5288 43.7081 13.743C44.2329 13.9572 44.7998 14.0608 45.3702 14.0469C46.312 14.03 47.2177 13.6974 47.9296 13.1073H48.0248V13.8419H50.5485V5.48207H48.0248ZM48.1498 9.69042C48.1752 10.3641 47.9399 11.0231 47.4892 11.5412C47.2731 11.7727 47.0064 11.9559 46.7082 12.0779C46.4099 12.2 46.0872 12.2578 45.763 12.2473C45.4486 12.2524 45.137 12.1895 44.8516 12.0633C44.566 11.9371 44.314 11.7508 44.1143 11.5184C43.6688 10.9896 43.4403 10.3234 43.4715 9.6449C43.4513 8.98675 43.6842 8.34434 44.1262 7.83963C44.3297 7.61078 44.5835 7.42775 44.8696 7.30375C45.1557 7.17968 45.4669 7.1177 45.7809 7.12214C46.1029 7.11256 46.4232 7.17138 46.7186 7.29449C47.014 7.4176 47.2772 7.60184 47.4892 7.83398C47.9398 8.35437 48.1749 9.01503 48.1498 9.69042Z" fill="#0A2540"/>
<path fill-rule="evenodd" clip-rule="evenodd" d="M75.4763 6.30202V5.48199H77.9999V13.8418H75.4763V13.1072H75.3809C74.6694 13.6973 73.7637 14.0299 72.8216 14.0468C72.2514 14.0608 71.6846 13.9572 71.1594 13.7429C70.635 13.5287 70.1643 13.2089 69.7803 12.8054C68.9835 11.9316 68.5585 10.8038 68.5895 9.64481C68.5606 8.50496 68.9862 7.39732 69.7803 6.54688C70.175 6.14395 70.6545 5.82478 71.1863 5.60996C71.7182 5.39515 72.2918 5.28948 72.8694 5.29976C73.8081 5.30656 74.7057 5.6666 75.3687 6.30202H75.4763ZM74.9404 11.5411C75.3936 11.0243 75.6296 10.3644 75.6014 9.69032C75.629 9.01455 75.3936 8.35292 74.9404 7.83388C74.7286 7.60174 74.465 7.4175 74.1698 7.29439C73.8746 7.17135 73.5546 7.11247 73.2325 7.12204C72.9185 7.11761 72.6071 7.17958 72.3207 7.30365C72.0349 7.42766 71.7814 7.61068 71.5777 7.8396C71.1359 8.34431 70.9026 8.98665 70.9227 9.64481C70.8918 10.3233 71.1204 10.9895 71.5656 11.5184C71.7653 11.7507 72.0174 11.937 72.3032 12.0632C72.5883 12.1894 72.9003 12.2523 73.2143 12.2473C73.5384 12.2577 73.8612 12.1999 74.1597 12.0779C74.4576 11.9558 74.7246 11.7726 74.9404 11.5411Z" fill="#0A2540"/>
<path fill-rule="evenodd" clip-rule="evenodd" d="M7.75381 8.97544C7.76779 4.03096 12.0029 0 17.3248 0C22.595 0 26.9565 4.0443 26.8959 9C26.8959 13.9557 22.595 18 17.3248 18C12.0633 18 7.76786 14.0257 7.75381 9.02469V15.7215H4.3615L0 2.62024H7.75381V8.97544ZM13.7508 9C13.7508 10.8228 15.3864 12.3608 17.3248 12.3608C19.3239 12.3608 20.8988 10.8228 20.8988 9C20.8988 7.17724 19.2633 5.63924 17.3248 5.63924C15.3864 5.63924 13.7508 7.17724 13.7508 9Z" fill="#0070F0"/>
</g>
<defs>
<clipPath id="clip0_896_11186">
<rect width="78" height="18" fill="white"/>
</clipPath>
</defs>
</svg>
