<svg width="10" height="10" viewBox="0 0 10 10" fill="none" xmlns="http://www.w3.org/2000/svg">
<g clip-path="url(#clip0_311_192)">
<path fill-rule="evenodd" clip-rule="evenodd" d="M0.909616 8.88825C0.875524 9.012 0.988229 9.1262 1.11242 9.09379L3.03214 8.59237C3.63812 8.92058 4.32036 9.09495 5.01503 9.09495H5.01707C7.3029 9.09495 9.16619 7.24245 9.16619 4.96529C9.16619 3.86156 8.7354 2.82347 7.95215 2.04388C7.16895 1.26432 6.12803 0.833496 5.01703 0.833496C2.73124 0.833496 0.86792 2.68602 0.86792 4.96325C0.867658 5.68766 1.05887 6.39941 1.42237 7.02704L0.909616 8.88825ZM3.70203 2.9876C3.77826 2.98964 3.86278 2.99377 3.94319 3.17226C3.99651 3.29108 4.08634 3.50983 4.15951 3.68803C4.21645 3.82669 4.26328 3.94079 4.27503 3.96415C4.30182 4.01748 4.31832 4.07902 4.28328 4.15081C4.27915 4.15928 4.27524 4.16737 4.27149 4.17516C4.24336 4.2335 4.22336 4.27504 4.17611 4.32929C4.15667 4.35162 4.13642 4.37608 4.11625 4.40045C4.08077 4.44333 4.04553 4.48591 4.01532 4.516C3.96173 4.56929 3.90606 4.62679 3.96789 4.73345C4.02976 4.84012 4.2462 5.19095 4.56565 5.47404C4.90915 5.77983 5.20782 5.9087 5.35878 5.97383C5.38811 5.9865 5.41182 5.99675 5.42928 6.00541C5.53645 6.05875 5.60036 6.05054 5.6622 5.97875C5.72403 5.90691 5.93011 5.66687 6.00228 5.5602C6.07236 5.45354 6.14449 5.46995 6.24344 5.50687C6.34236 5.54379 6.87003 5.80229 6.97719 5.85562C6.9984 5.86616 7.01819 5.87566 7.03657 5.8845C7.11115 5.92025 7.16182 5.94454 7.18332 5.98079C7.21011 6.02591 7.21011 6.23929 7.12149 6.48958C7.03082 6.73983 6.59382 6.97987 6.39595 6.99833C6.37724 7.00012 6.35857 7.00237 6.3394 7.00466C6.15807 7.02662 5.92786 7.05445 5.10774 6.73162C4.09715 6.33425 3.43006 5.34825 3.29519 5.14891C3.28454 5.13316 3.27721 5.12233 3.27329 5.11708L3.27101 5.11404C3.20965 5.03191 2.83425 4.52962 2.83425 4.01135C2.83425 3.5155 3.07851 3.25735 3.18992 3.13961C3.19698 3.13215 3.20351 3.12525 3.2094 3.11889C3.30832 3.01223 3.42377 2.98556 3.4959 2.98556C3.56807 2.98556 3.6402 2.98556 3.70203 2.9876Z" fill="white"/>
</g>
<defs>
<clipPath id="clip0_311_192">
<rect width="10" height="10" fill="white"/>
</clipPath>
</defs>
</svg>
