<svg width="16" height="16" viewBox="0 0 16 16" fill="none" xmlns="http://www.w3.org/2000/svg">
<path d="M13 13.25C13 13.5815 12.8683 13.8995 12.6339 14.1339C12.3995 14.3683 12.0815 14.5 11.75 14.5H4.25C3.91848 14.5 3.60054 14.3683 3.36612 14.1339C3.1317 13.8995 3 13.5815 3 13.25" stroke="black" stroke-width="0.8" stroke-linecap="round" stroke-linejoin="round"/>
<path fill-rule="evenodd" clip-rule="evenodd" d="M8.40156 1.49998C8.40156 1.27906 8.22248 1.09998 8.00156 1.09998C7.78065 1.09998 7.60156 1.27906 7.60156 1.49998V10.0343L5.78441 8.21713C5.6282 8.06092 5.37493 8.06092 5.21872 8.21713C5.06251 8.37334 5.06251 8.62661 5.21872 8.78282L7.71872 11.2828C7.87493 11.439 8.1282 11.439 8.28441 11.2828L10.7844 8.78282C10.9406 8.62661 10.9406 8.37334 10.7844 8.21713C10.6282 8.06092 10.3749 8.06092 10.2187 8.21713L8.40156 10.0343V1.49998Z" fill="black"/>
</svg>
