<svg width="18" height="18" viewBox="0 0 18 18" fill="none" xmlns="http://www.w3.org/2000/svg">
<path d="M11.3201 8.81535L4.9668 4.7925L6.66165 3.75806L13.1562 7.7809L13.0802 14.1364L11.2209 15.2519L11.3201 8.81535Z" fill="black"/>
<path d="M11.3201 8.81535L4.9668 4.7925L6.66165 3.75806L13.1562 7.7809M11.3201 8.81535L13.1562 7.7809M11.3201 8.81535L11.2209 15.2519L13.0802 14.1364L13.1562 7.7809" stroke="black" stroke-width="0.287346" stroke-linecap="round"/>
<path d="M9.4206 16.4013V9.93597L2.66797 6.0568V12.3784L9.4206 16.4013Z" fill="black"/>
<path d="M9.4206 9.93597L15.3112 6.63149M9.4206 9.93597V16.4013M9.4206 9.93597L2.66797 6.0568M15.3112 6.63149L15.1675 12.9531L9.4206 16.4013M15.3112 6.63149L8.55856 2.60864L2.66797 6.0568M9.4206 16.4013L2.66797 12.3784V6.0568" stroke="black" stroke-width="0.743719" stroke-linecap="round"/>
</svg>
