<svg width="16" height="16" viewBox="0 0 16 16" fill="none" xmlns="http://www.w3.org/2000/svg">
<path fill-rule="evenodd" clip-rule="evenodd" d="M15.2299 4.58878C15.3131 4.25234 15.2299 4 14.7306 4H13.0662C12.7333 4 12.4836 4.16822 12.3172 4.50467C11.8179 5.68224 11.1521 6.85981 10.3199 7.86916C9.90383 8.28972 9.73739 8.37383 9.57095 8.37383C9.48773 8.37383 9.32129 8.28972 9.32129 7.86916V4.58878C9.32129 4.16822 9.23807 4 8.82197 4H6.24215C5.99249 4 5.82605 4.16822 5.82605 4.33645C5.82605 4.75701 6.40859 4.84112 6.49181 5.93458V8.37383C6.49181 8.8785 6.40859 9.04673 6.15893 9.04673C5.57639 9.04673 4.24487 7.02804 3.49592 4.6729C3.32948 4.25234 3.16303 4 2.74693 4H1.08253C0.583212 4 0.5 4.25234 0.5 4.50467C0.5 4.92523 1.08254 7.11215 3.07982 9.97196C4.16165 11.7383 5.99249 12.8318 8.07299 13C9.07163 13 9.23807 12.7477 9.23807 12.3271V10.8131C9.23807 10.3084 9.32129 10.2243 9.65417 10.2243C9.90383 10.2243 10.3199 10.3084 11.3186 11.3178C12.4004 12.4112 12.6501 12.9159 13.2326 12.9159H14.897C15.3963 12.9159 15.5628 12.6636 15.4796 12.243C15.1467 11.486 14.6474 10.8972 14.0648 10.3084C13.6487 9.88785 13.1494 9.38318 12.8997 9.13084C12.6501 8.79439 12.7333 8.71028 12.8997 8.37383C13.0662 8.37383 15.0635 5.51402 15.2299 4.58878Z" fill="black"/>
</svg>
