<svg width="130" height="130" viewBox="0 0 130 130" fill="none" xmlns="http://www.w3.org/2000/svg">
<path d="M82.831 109.635H46.1727C45.4582 109.635 44.8789 109.056 44.8789 108.341C44.8789 107.627 45.4582 107.048 46.1727 107.048H82.831C83.5456 107.048 84.1248 107.627 84.1248 108.341C84.1248 109.056 83.5456 109.635 82.831 109.635Z" stroke="white" stroke-opacity="0.35" stroke-width="0.969231"/>
<path d="M33 104.888V25.1117C33 20.6317 36.6317 17 41.1117 17H87.8883C92.3683 17 96 20.6317 96 25.1117V104.888C96 109.368 92.3683 113 87.8883 113H41.1117C36.6317 113 33 109.368 33 104.888Z" stroke="white" stroke-opacity="0.35" stroke-width="2.5"/>
<path d="M80.0386 38.3697C80.0386 46.6864 73.3115 53.4266 65.0155 53.4266C56.7195 53.4266 49.9924 46.6864 49.9924 38.3697C49.9924 30.053 56.7195 23.3127 65.0155 23.3127C73.3115 23.3127 80.0386 30.053 80.0386 38.3697Z" stroke="white" stroke-opacity="0.35" stroke-width="0.969231"/>
<path d="M73.6176 38.6753C73.6176 43.2696 69.9021 46.9894 65.3244 46.9894C60.7468 46.9894 57.0312 43.2696 57.0312 38.6753C57.0312 34.0811 60.7468 30.3613 65.3244 30.3613C69.9021 30.3613 73.6176 34.0811 73.6176 38.6753Z" stroke="white" stroke-opacity="0.35" stroke-width="2.5"/>
<path d="M85.6469 81.992C85.6469 93.479 76.3553 102.789 64.8958 102.789C53.4363 102.789 44.1448 93.479 44.1448 81.992C44.1448 70.5049 53.4363 61.1946 64.8958 61.1946C76.3553 61.1946 85.6469 70.5049 85.6469 81.992Z" stroke="white" stroke-opacity="0.35" stroke-width="0.969231"/>
<path d="M76.3328 82.0792C76.3328 88.3653 71.2487 93.4566 64.9828 93.4566C58.7169 93.4566 53.6328 88.3653 53.6328 82.0792C53.6328 75.793 58.7169 70.7017 64.9828 70.7017C71.2487 70.7017 76.3328 75.793 76.3328 82.0792Z" stroke="white" stroke-opacity="0.35" stroke-width="2.5"/>
<path d="M89.7044 26.4314C89.7044 27.1652 89.1111 27.7581 88.3816 27.7581C87.652 27.7581 87.0588 27.1652 87.0588 26.4314C87.0588 25.6977 87.652 25.1047 88.3816 25.1047C89.1111 25.1047 89.7044 25.6977 89.7044 26.4314Z" stroke="white" stroke-opacity="0.35" stroke-width="0.969231"/>
</svg>
