<svg width="130" height="130" viewBox="0 0 130 130" fill="none" xmlns="http://www.w3.org/2000/svg">
<g opacity="0.35">
<path d="M67.0793 77.7667H125.001M58.1278 77.7667H62.8669M64.9731 64.0762L68.659 67.7621M71.8184 70.9215L112.89 112.52" stroke="white" stroke-width="2.47241" stroke-linecap="round"/>
<circle cx="63.3905" cy="65.6553" r="46.1543" stroke="white" stroke-width="2.47241"/>
<circle cx="63.394" cy="65.6568" r="41.5983" stroke="white" stroke-width="1.05312"/>
<path d="M99.3781 36.3183C100.357 35.9845 101.398 35.8767 102.425 36.0031C103.451 36.1295 104.435 36.4868 105.304 37.0481C106.172 37.6094 106.902 38.3601 107.439 39.244C107.976 40.1278 108.305 41.1218 108.403 42.1512C108.501 43.1807 108.364 44.2189 108.003 45.1878C107.641 46.1568 107.066 47.0314 106.318 47.7459" stroke="white" stroke-width="2.47241"/>
<path d="M107.204 82.4068C107.956 83.1161 108.538 83.9866 108.906 84.953C109.274 85.9195 109.418 86.9567 109.328 87.9868C109.237 89.0169 108.915 90.0131 108.384 90.9007C107.854 91.7883 107.129 92.5441 106.264 93.1115C105.4 93.6788 104.418 94.0429 103.393 94.1765C102.367 94.3101 101.325 94.2096 100.344 93.8826" stroke="white" stroke-width="2.47241"/>
<path d="M69.8782 111.778C69.5951 112.773 69.0904 113.69 68.402 114.462C67.7135 115.234 66.8592 115.839 65.9032 116.233C64.9472 116.627 63.9143 116.8 62.8821 116.738C61.85 116.675 60.8453 116.38 59.9435 115.874C59.0418 115.368 58.2664 114.664 57.6757 113.815C57.0849 112.967 56.6941 111.995 56.5326 110.974" stroke="white" stroke-width="2.47241"/>
<path d="M27.9059 96.0153C26.919 96.3242 25.875 96.4056 24.8522 96.2533C23.8295 96.101 22.8545 95.7189 22.0005 95.1358C21.1465 94.5527 20.4357 93.7837 19.9215 92.8866C19.4073 91.9894 19.103 90.9875 19.0315 89.9559C18.9599 88.9243 19.123 87.8899 19.5086 86.9304C19.8941 85.9709 20.4919 85.1111 21.2573 84.4158" stroke="white" stroke-width="2.47241"/>
<path d="M21.2886 46.6424C20.5388 45.9303 19.9602 45.0575 19.596 44.0897C19.2319 43.1219 19.0917 42.0841 19.1861 41.0544C19.2804 40.0246 19.6068 39.0296 20.1408 38.1441C20.6748 37.2586 21.4025 36.5055 22.2691 35.9415C23.1358 35.3775 24.1191 35.0171 25.145 34.8875C26.1709 34.7579 27.2128 34.8624 28.1926 35.1931" stroke="white" stroke-width="2.47241"/>
<path d="M56.3839 19.2999C56.6466 18.2997 57.1325 17.3721 57.8051 16.5866C58.4776 15.8012 59.3194 15.1783 60.2672 14.7647C61.2149 14.3512 62.2441 14.1577 63.2773 14.1989C64.3106 14.24 65.3211 14.5147 66.2329 15.0023C67.1448 15.49 67.9344 16.1778 68.5423 17.0143C69.1503 17.8508 69.5608 18.8141 69.7432 19.832" stroke="white" stroke-width="2.47241"/>
</g>
</svg>
