<svg width="130" height="130" viewBox="0 0 130 130" fill="none" xmlns="http://www.w3.org/2000/svg">
<g opacity="0.35">
<path d="M31.9703 46.2653V34.6327C31.9703 33.1617 33.1628 31.9692 34.6338 31.9692H49.2592C50.7302 31.9692 51.9226 33.1617 51.9226 34.6327V46.2653C51.9226 47.7362 50.7302 48.9287 49.2592 48.9287H34.6338C33.1628 48.9287 31.9703 47.7362 31.9703 46.2653Z" fill="white" stroke="white" stroke-width="2.66341" stroke-linecap="round"/>
<path d="M20 102.898V26.1024C20 22.1799 23.1799 19 27.1024 19H102.566C106.488 19 109.668 22.1799 109.668 26.1024V102.898C109.668 106.82 106.488 110 102.566 110H27.1024C23.1799 110 20 106.82 20 102.898Z" stroke="white" stroke-width="2.5" stroke-linecap="round"/>
<circle cx="32.9673" cy="55.912" r="1.49642" stroke="white" stroke-width="0.997613"/>
<path d="M63.5501 51.9954V30.7884H68.158C69.7289 30.7884 70.9681 31.0328 71.8757 31.5215C72.8008 31.9928 73.4554 32.7084 73.8393 33.6684C74.2408 34.6284 74.4415 35.824 74.4415 37.2552V45.0573C74.4415 46.5584 74.2408 47.8238 73.8393 48.8536C73.4554 49.8834 72.8183 50.6688 71.9281 51.2099C71.0554 51.7335 69.8772 51.9954 68.3936 51.9954H63.5501ZM66.5086 49.8747H68.1842C69.2663 49.8747 70.0343 49.6652 70.4881 49.2463C70.9419 48.8274 71.2125 48.2165 71.2998 47.4136C71.4045 46.6107 71.4568 45.642 71.4568 44.5075V37.6218C71.4568 36.5222 71.387 35.632 71.2474 34.9513C71.1078 34.2706 70.8023 33.7731 70.331 33.4589C69.8598 33.1448 69.118 32.9877 68.1056 32.9877H66.5086V49.8747ZM79.6868 51.9954V32.9877H76.0999V30.7884H86.1274V32.9877H82.6453V51.9954H79.6868ZM86.8627 51.9954L91.2874 40.8945L86.9413 30.7884H89.6903L92.9106 38.2763L95.843 30.7884H98.592L94.1412 41.1301L98.8015 51.9954H96.0524L92.5965 44.01L89.6118 51.9954H86.8627Z" fill="white"/>
<path d="M66.4984 78V98.4195M81.4984 78V98.4195M96.3897 77.8599V98.2794" stroke="white" stroke-width="0.997613" stroke-linecap="round"/>
<path d="M64.8943 92.7495H67.8943" stroke="white" stroke-width="2.99284" stroke-linecap="round"/>
<path d="M79.9998 92H82.9998" stroke="white" stroke-width="2.99284" stroke-linecap="round"/>
<path d="M94.9998 93H97.9998" stroke="white" stroke-width="2.5" stroke-linecap="round"/>
</g>
</svg>
