<svg width="12" height="12" viewBox="0 0 12 12" fill="none" xmlns="http://www.w3.org/2000/svg">
<path fill-rule="evenodd" clip-rule="evenodd" d="M1.04388 6.08405C-0.34796 4.69221 -0.34796 2.43562 1.04388 1.04388C2.43562 -0.34796 4.69221 -0.34796 6.08405 1.04388L7.34434 2.30417C7.66911 2.62894 7.66911 3.15543 7.34434 3.48021C7.01957 3.80488 6.49307 3.80488 6.1683 3.48021L4.90811 2.21992C4.16582 1.47762 2.96231 1.47762 2.22002 2.21992C1.47772 2.96221 1.47772 4.16572 2.22002 4.90801L3.48021 6.1682C3.80498 6.49297 3.80498 7.01947 3.48021 7.34424C3.15543 7.66901 2.62884 7.66901 2.30417 7.34424L1.04388 6.08405ZM4.65625 8.52028C4.33148 8.84505 4.33148 9.37165 4.65625 9.69642L5.91605 10.9561C7.30779 12.348 9.56438 12.348 10.9561 10.9561C12.348 9.56438 12.348 7.30779 10.9561 5.91605L9.69632 4.65615C9.37165 4.33148 8.84515 4.33148 8.52038 4.65615C8.19561 4.98092 8.19561 5.50742 8.52038 5.83219L9.78018 7.09209C10.5225 7.83438 10.5225 9.03779 9.78018 9.78008C9.03788 10.5224 7.83448 10.5224 7.09218 9.78008L5.83229 8.52028C5.50761 8.19551 4.98102 8.19551 4.65625 8.52028ZM4.4038 5.58052C4.07912 5.25575 4.07912 4.72926 4.4038 4.40448C4.72857 4.07971 5.25517 4.07971 5.57984 4.40448L7.59591 6.42055C7.92068 6.74532 7.92068 7.27182 7.59591 7.59659C7.27123 7.92137 6.74464 7.92137 6.41987 7.59659L4.4038 5.58052Z" fill="black"/>
</svg>
