<svg width="24" height="24" viewBox="0 0 24 24" fill="none" xmlns="http://www.w3.org/2000/svg">
<path d="M8.72642 18.9999C8.86107 18.9999 8.99019 18.9468 9.0854 18.8521C9.18061 18.7574 9.2341 18.629 9.2341 18.4951C9.2341 18.3612 9.18061 18.2328 9.0854 18.1381C8.99019 18.0434 8.86107 17.9902 8.72642 17.9902C8.59178 17.9902 8.46265 18.0434 8.36744 18.1381C8.27224 18.2328 8.21875 18.3612 8.21875 18.4951C8.21875 18.629 8.27224 18.7574 8.36744 18.8521C8.46265 18.9468 8.59178 18.9999 8.72642 18.9999Z" stroke="white" stroke-linecap="round" stroke-linejoin="round"/>
<path d="M17.1678 18.9999C17.3025 18.9999 17.4316 18.9468 17.5268 18.8521C17.622 18.7574 17.6755 18.629 17.6755 18.4951C17.6755 18.3612 17.622 18.2328 17.5268 18.1381C17.4316 18.0434 17.3025 17.9902 17.1678 17.9902C17.0332 17.9902 16.9041 18.0434 16.8088 18.1381C16.7136 18.2328 16.6602 18.3612 16.6602 18.4951C16.6602 18.629 16.7136 18.7574 16.8088 18.8521C16.9041 18.9468 17.0332 18.9999 17.1678 18.9999Z" stroke="white" stroke-linecap="round" stroke-linejoin="round"/>
<path d="M4 6H6.41145L8.22003 16.1917H17.8658" stroke="white" stroke-linecap="round" stroke-linejoin="round"/>
<path d="M8.21875 13.7937H17.617C17.6868 13.794 17.7545 13.7701 17.8086 13.7262C17.8627 13.6824 17.8998 13.6212 17.9136 13.5531L18.9987 8.15747H15.3896" stroke="white" stroke-linecap="round" stroke-linejoin="round"/>
</svg>
