<svg width="16" height="16" viewBox="0 0 16 16" fill="none" xmlns="http://www.w3.org/2000/svg">
<g id="Icons / wa">
<path id="Vector" d="M8.68685 9.60905C8.65891 9.59518 8.62098 9.57878 8.57405 9.55852C8.33251 9.45432 7.85465 9.24812 7.30505 8.75885C6.79391 8.30592 6.44761 7.74459 6.34863 7.57392M8.68685 9.60905L8.87081 9.44169C8.86161 9.44051 8.83611 9.43512 8.78586 9.4101L8.78566 9.41C8.75206 9.39333 8.70911 9.37478 8.66551 9.35596L8.66214 9.3545L8.66207 9.35447L8.66169 9.35431C8.42778 9.2534 7.97571 9.05837 7.45281 8.59287L7.45243 8.59253C6.96777 8.16307 6.63565 7.62585 6.54088 7.46248M8.68685 9.60905C8.85831 9.69438 8.96058 9.68125 9.05951 9.56639L8.68685 9.60905ZM6.34863 7.57392L6.54088 7.46248M6.34863 7.57392C6.2497 7.40325 6.33877 7.31125 6.42451 7.22598L6.54085 7.46243L6.34863 7.57392ZM6.54088 7.46248C6.53492 7.45218 6.5315 7.44462 6.52958 7.4396C6.53101 7.4376 6.53286 7.43514 6.53524 7.4322C6.54555 7.41948 6.55902 7.40562 6.58121 7.38355L6.5813 7.38346C6.63743 7.32757 6.69957 7.25246 6.75299 7.18788L6.7572 7.18279L6.54088 7.46248ZM6.51171 4.98473L6.51184 4.98502C6.5987 5.17857 6.7434 5.53096 6.85954 5.81381L6.86078 5.81682L6.86304 5.82233C6.90777 5.93127 6.94822 6.02977 6.97991 6.10595C6.99604 6.1447 7.00964 6.17707 7.02024 6.20176L7.0333 6.23168C7.03701 6.23998 7.03856 6.24316 7.03856 6.24315L7.03862 6.24327C7.09741 6.36029 7.15169 6.53674 7.05302 6.73902L6.51171 4.98473ZM6.51171 4.98473C6.4366 4.81799 6.34497 4.69963 6.22511 4.63015C6.10939 4.56307 5.99574 4.56013 5.93438 4.55854C5.93283 4.5585 5.93132 4.55847 5.92985 4.55843M6.51171 4.98473L6.3091 5.076C6.18045 4.79042 6.04522 4.78382 5.92325 4.78055M5.92325 4.78055L5.93058 4.55845C5.93033 4.55844 5.93009 4.55843 5.92985 4.55843M5.92325 4.78055L5.92919 4.55841C5.92941 4.55841 5.92963 4.55842 5.92985 4.55843M5.92325 4.78055C5.82431 4.77728 5.70891 4.77728 5.59345 4.77728L5.92985 4.55843M5.92985 4.55843C5.8274 4.55506 5.70929 4.55506 5.59586 4.55506H5.59345C5.42716 4.55506 5.17935 4.61604 4.97211 4.8395L4.97205 4.83957L4.94247 4.87101L4.94246 4.87103C4.75232 5.07197 4.31258 5.53839 4.31258 6.41855C4.31258 6.88297 4.47946 7.32747 4.64911 7.66272C4.82015 8.00074 5.00381 8.24655 5.05545 8.31567L5.05559 8.31586L5.05578 8.31611L5.05914 8.3206C5.05914 8.3206 5.05974 8.32141 5.06114 8.32341L5.06741 8.33247L5.08821 8.36313L5.08825 8.36318L5.09087 8.36705C5.31131 8.69289 6.40993 10.3168 8.09106 10.9778C8.75401 11.2388 9.19029 11.3628 9.50423 11.4155C9.82614 11.4695 10.0145 11.4473 10.1694 11.4285L5.92985 4.55843ZM10.0672 8.60318L10.0672 8.60319C10.1585 8.63726 10.4213 8.76157 10.668 8.88031C10.921 9.00212 11.1758 9.12728 11.2625 9.17044M10.0672 8.60318L11.6844 9.4562C11.6398 9.38105 11.5745 9.33379 11.5236 9.30267C11.4743 9.27257 11.4153 9.24432 11.3609 9.21824L11.3548 9.2153L11.2586 9.4155L11.3546 9.21519L11.3517 9.21383C11.3231 9.20007 11.2938 9.18597 11.2625 9.17044M10.0672 8.60318C9.99287 8.57545 9.87641 8.53269 9.75325 8.54721C9.60675 8.56447 9.49871 8.65234 9.41887 8.77325C9.31186 8.93098 8.99455 9.30122 8.89113 9.42136L10.0672 8.60318ZM11.2625 9.17044L11.1635 9.36938L11.2624 9.17039C11.2625 9.1704 11.2625 9.17042 11.2625 9.17044ZM4.95726 13.5528L4.88013 13.511L4.79527 13.5332L1.72374 14.3354C1.72373 14.3354 1.72372 14.3354 1.72371 14.3354C1.69056 14.3441 1.66054 14.3136 1.66963 14.2806L2.49003 11.3027L2.51477 11.2129L2.46809 11.1323C1.90609 10.1619 1.61049 9.06154 1.61089 7.94167V7.94158C1.61089 4.4218 4.49165 1.55621 8.02725 1.55621C9.74611 1.55621 11.3552 2.22226 12.5667 3.42809L12.7234 3.27059L12.5667 3.42809C13.7779 4.63371 14.4437 6.23796 14.4437 7.94485C14.4437 11.4645 11.563 14.3301 8.02731 14.3301H8.02404C6.94971 14.3301 5.89448 14.0604 4.95726 13.5528ZM6.84937 7.07318C6.94452 6.96393 6.98736 6.87507 7.03247 6.78148L7.03455 6.77716L7.03462 6.77702L7.05295 6.73917L6.84937 7.07318ZM10.2544 11.419C10.464 11.3993 10.7532 11.2747 10.9986 11.1166C11.2412 10.9604 11.505 10.7308 11.6033 10.4594L11.6039 10.4579C11.6811 10.2396 11.7205 10.0356 11.7345 9.87254C11.7415 9.79124 11.7424 9.71677 11.7374 9.65355C11.7334 9.60219 11.7234 9.52192 11.6844 9.45629L10.2544 11.419Z" fill="#4B1E78" stroke="#4B1E78" stroke-width="0.444444"/>
</g>
</svg>
