<svg width="24" height="24" viewBox="0 0 24 24" fill="none" xmlns="http://www.w3.org/2000/svg">
<g id="circle 24px">
<rect y="24" width="24" height="24" rx="12" transform="rotate(-90 0 24)" fill="#862A6F"/>
<path id="Vector" d="M8.70119 11.3226C6.76562 14.5485 9.29254 16.699 10.798 17.371C9.20465 14.7366 10.5069 13.32 11.3572 12.9409C10.5184 14.453 11.5787 15.599 12.2137 15.983C12.6626 15.7113 12.9422 14.7278 13.0259 14.27C14.1482 15.1679 13.8085 16.7114 13.4984 17.371C17.0779 16.4142 16.6197 13.235 15.9431 11.7651C16.0836 13.0362 15.1845 14.0212 14.7174 14.3549C16.7949 9.72265 13.583 6.85485 11.7174 6C11.9994 6.84971 11.4487 8.04297 10.4755 9.14517C9.94724 9.74335 9.03454 10.8065 8.70119 11.3226Z" fill="white"/>
</g>
</svg>
