<svg width="24" height="24" viewBox="0 0 24 24" fill="none" xmlns="http://www.w3.org/2000/svg">
<rect y="24" width="24" height="24" rx="12" transform="rotate(-90 0 24)" fill="#242424"/>
<path d="M6.74334 17L5 10.276L5.65742 10.1149L8.77908 14.0997L7.62116 9.63361L8.42373 9.43691L10.1671 16.1609L9.55233 16.3115L6.37278 12.2086L7.56299 16.7991L6.74334 17Z" fill="white"/>
<path d="M11.2541 15.8944L9.51078 9.17048L12.1917 8.51341L12.3725 9.21071L10.6564 9.63132L11.2332 11.856L12.6249 11.5149L12.797 12.179L11.4054 12.5201L12.0446 14.9856L13.7778 14.5608L13.9521 15.2332L11.2541 15.8944Z" fill="white"/>
<path d="M15.6275 14.8226L12.7571 8.37483L13.5597 8.17812L15.5551 12.8274L15.2396 7.79288L15.9227 7.62548L18.1145 12.2266L17.5811 7.19252L18.3666 7L19 13.996L18.2999 14.1676L16.0437 9.42334L16.3618 14.6426L15.6275 14.8226Z" fill="white"/>
</svg>
