<svg width="18" height="18" viewBox="0 0 18 18" fill="none" xmlns="http://www.w3.org/2000/svg">
<g clip-path="url(#clip0_1258_13285)">
<path d="M9.00065 0.852051L15.0873 2.20464C15.2518 2.24121 15.3989 2.33277 15.5044 2.4642C15.6098 2.59564 15.6673 2.7591 15.6673 2.92761V10.3254C15.6673 11.057 15.4866 11.7774 15.1413 12.4224C14.796 13.0675 14.2968 13.6173 13.6881 14.0232L9.00065 17.1483L4.31324 14.0232C3.70446 13.6175 3.20527 13.0678 2.85999 12.4228C2.51471 11.7779 2.33403 11.0577 2.33398 10.3261V2.92761C2.33401 2.7591 2.39149 2.59564 2.49694 2.4642C2.60239 2.33277 2.74949 2.24121 2.91398 2.20464L9.00065 0.852051ZM12.2984 6.20168L8.63176 9.86761L6.53695 7.77279L5.48954 8.8202L8.6325 11.9632L13.3466 7.24909L12.2984 6.20168Z" fill="black"/>
</g>
<defs>
<clipPath id="clip0_1258_13285">
<rect width="17.7778" height="17.7778" fill="white" transform="translate(0.111328 0.111084)"/>
</clipPath>
</defs>
</svg>
