<svg width="10" height="10" viewBox="0 0 10 10" fill="none" xmlns="http://www.w3.org/2000/svg">
<path d="M5.86986 8.35064H4.07534V9.80269H2.5V8.35064H1.5V7.11776H2.5V6.02187H1.5V4.65201H2.5V0.199951H5.08904C5.78311 0.199951 6.34932 0.291275 6.78767 0.473924C7.23516 0.656572 7.58676 0.894015 7.84247 1.18625C8.09817 1.46936 8.27169 1.78443 8.36301 2.13146C8.45434 2.47849 8.5 2.82096 8.5 3.15886C8.5 3.48762 8.44521 3.82552 8.33562 4.17255C8.23516 4.51045 8.05251 4.82096 7.78767 5.10406C7.52283 5.37803 7.16667 5.60634 6.71918 5.78899C6.28082 5.96251 5.72374 6.04927 5.04795 6.04927H4.07534V7.11776H5.86986V8.35064ZM4.07534 4.65201H5.07534C5.26712 4.65201 5.46804 4.63374 5.67808 4.59721C5.89726 4.55155 6.09817 4.47392 6.28082 4.36433C6.4726 4.25475 6.62785 4.10406 6.74658 3.91228C6.8653 3.71137 6.92466 3.45566 6.92466 3.14516C6.92466 2.82552 6.86986 2.56525 6.76027 2.36433C6.65982 2.16342 6.52283 2.00817 6.34932 1.89858C6.1758 1.77986 5.97945 1.70223 5.76027 1.6657C5.55023 1.62004 5.33105 1.59721 5.10274 1.59721H4.07534V4.65201Z" fill="black"/>
</svg>
