<svg width="10" height="10" viewBox="0 0 10 10" fill="none" xmlns="http://www.w3.org/2000/svg">
<path fill-rule="evenodd" clip-rule="evenodd" d="M7.70055 8.2461L7.70084 8.24539L7.70809 8.22727L8.95759 1.92763V1.90717C8.95759 1.75021 8.89959 1.61319 8.77339 1.531C8.66293 1.45905 8.53597 1.45393 8.44693 1.46069C8.35276 1.46784 8.26393 1.49134 8.20247 1.51091C8.17084 1.52097 8.14438 1.53067 8.12543 1.53801C8.11593 1.5417 8.10826 1.54482 8.10263 1.54715L8.09713 1.54946L1.13055 4.28235L1.12863 4.28306C1.12486 4.28439 1.11989 4.28627 1.11388 4.2886C1.1019 4.29327 1.08559 4.29993 1.06643 4.30864C1.02881 4.32568 0.976843 4.35197 0.92413 4.38806C0.83461 4.44939 0.664147 4.59452 0.69293 4.8246C0.716772 5.01518 0.848147 5.13622 0.936718 5.19889C0.984197 5.23252 1.02962 5.25672 1.06288 5.27256C1.07973 5.2806 1.09405 5.28672 1.10471 5.29106C1.11006 5.29327 1.11453 5.29497 1.11798 5.29631L1.12241 5.29793L1.12524 5.29902L2.34409 5.70935C2.33998 5.78581 2.34756 5.86377 2.36784 5.94072L2.97838 8.25672C3.05077 8.53131 3.2992 8.7226 3.58318 8.72239C3.83774 8.72222 4.0635 8.56822 4.15941 8.33847L5.11259 7.31927L6.74968 8.57435L6.77297 8.58452C6.92172 8.64943 7.06068 8.66997 7.18772 8.65264C7.31459 8.63531 7.41543 8.5821 7.49113 8.52152C7.56568 8.46189 7.61676 8.3946 7.64884 8.34393C7.66518 8.31818 7.67734 8.29556 7.6858 8.27856C7.69001 8.26997 7.69334 8.26277 7.69588 8.2571L7.69901 8.24985L7.70013 8.24718L7.70055 8.2461ZM2.97218 5.78139C2.9583 5.72877 2.98008 5.67318 3.02603 5.64402L7.16022 3.01863C7.16022 3.01863 7.40338 2.87101 7.39468 3.01863C7.39468 3.01863 7.43809 3.0447 7.30776 3.16625C7.18418 3.2817 4.36126 6.00714 4.0756 6.28293C4.05911 6.29885 4.04927 6.3171 4.04346 6.33927L3.58271 8.09739L2.97218 5.78139Z" fill="white"/>
</svg>
