<svg width="12" height="12" viewBox="0 0 12 12" fill="none" xmlns="http://www.w3.org/2000/svg">
<path d="M0.666667 0H11.3333C11.5101 0 11.6797 0.0702379 11.8047 0.195262C11.9298 0.320286 12 0.489856 12 0.666667V11.3333C12 11.5101 11.9298 11.6797 11.8047 11.8047C11.6797 11.9298 11.5101 12 11.3333 12H0.666667C0.489856 12 0.320286 11.9298 0.195262 11.8047C0.0702379 11.6797 0 11.5101 0 11.3333V0.666667C0 0.489856 0.0702379 0.320286 0.195262 0.195262C0.320286 0.0702379 0.489856 0 0.666667 0ZM5.33533 8.66667L9.5774 4.424C9.83768 4.16368 9.83767 3.74167 9.57737 3.48137C9.31705 3.22105 8.89497 3.22107 8.63467 3.48141L5.33533 6.78133L3.92067 5.36667C3.66036 5.10636 3.23831 5.10636 2.978 5.36667C2.71769 5.62698 2.71769 6.04902 2.978 6.30933L5.33533 8.66667Z" fill="black"/>
</svg>
