<svg width="130" height="130" viewBox="0 0 130 130" fill="none" xmlns="http://www.w3.org/2000/svg">
<path opacity="0.35" fill-rule="evenodd" clip-rule="evenodd" d="M21.2143 28.0714C21.2143 24.2843 24.2843 21.2143 28.0714 21.2143H35.1598C35.0139 21.4665 34.9304 21.7592 34.9304 22.0715V70.9287C34.9304 71.8754 35.6979 72.643 36.6447 72.643H39.6431V107.786H28.0714C24.2843 107.786 21.2143 104.716 21.2143 100.929V28.0714ZM43.5018 72.643H40.5002V107.786H57.6431V72.643H54.6425C53.6958 72.643 52.9282 71.8754 52.9282 70.9287V22.0715C52.9282 21.7592 53.0117 21.4665 53.1576 21.2143H44.9867C45.1326 21.4665 45.2161 21.7592 45.2161 22.0715V70.9287C45.2161 71.8754 44.4486 72.643 43.5018 72.643ZM58.5002 72.643H61.4997C62.4464 72.643 63.214 71.8754 63.214 70.9287V22.0715C63.214 21.7592 63.1305 21.4665 62.9846 21.2143H76.0739V107.786H58.5002V72.643ZM76.931 107.786H94.0739V72.643H91.4998C90.553 72.643 89.7855 71.8754 89.7855 70.9287V22.0715C89.7855 21.7592 89.869 21.4665 90.0149 21.2143H76.931V107.786ZM94.931 72.643V107.786H101.357C105.144 107.786 108.214 104.716 108.214 100.929V28.0714C108.214 24.2843 105.144 21.2143 101.357 21.2143H99.8418C99.9877 21.4665 100.071 21.7592 100.071 22.0715V70.9287C100.071 71.8754 99.3037 72.643 98.3569 72.643H94.931ZM28.0714 19C23.3376 19 19 23.3376 19 28.0714V100.929C19 105.662 23.3376 110 28.0714 110H101.357C106.091 110 110.5 105.734 110.5 101V28.1429C110.5 23.409 106.091 19.5 101.357 19.5L64.7143 19H28.0714Z" fill="white"/>
</svg>
