<svg width="130" height="130" viewBox="0 0 130 130" fill="none" xmlns="http://www.w3.org/2000/svg">
<path opacity="0.35" fill-rule="evenodd" clip-rule="evenodd" d="M105.006 18.5528L104.113 18L104.243 19.0422C104.6 21.902 105.188 27.0103 104.712 32.0782C104.234 37.1696 102.696 42.0713 98.9364 44.6864C94.0246 48.1033 81.2649 55.4033 68.5212 62.5628C64.0226 65.0901 59.528 67.5988 55.388 69.9096C55.0773 70.0831 54.7686 70.2554 54.4621 70.4265L48.8845 60.7653C48.4904 60.0828 47.6177 59.8489 46.9351 60.243C46.2526 60.637 46.0187 61.5098 46.4128 62.1923L51.9698 71.8179C49.9364 72.9536 48.0256 74.0221 46.2867 74.9982L40.3 64.6284C39.9059 63.9458 39.0332 63.712 38.3506 64.106C37.6681 64.5 37.4342 65.3728 37.8283 66.0554L43.7992 76.3979C41.5148 77.6871 39.6554 78.7493 38.3777 79.5043C38.2424 79.5842 38.1049 79.6653 37.965 79.7476L31.7155 68.9224C31.3214 68.2399 30.4487 68.006 29.7661 68.4001C29.0836 68.7941 28.8497 69.6669 29.2437 70.3494L35.4981 81.1828C33.2516 82.4788 30.6608 83.9504 27.9608 85.484C20.8741 89.5091 13.0355 93.9614 8.69911 96.7873L6.05944 96.2217C5.83523 96.1736 5.60117 96.21 5.40208 96.3237L4.46952 96.8566C3.97906 97.1369 3.8489 97.7857 4.19333 98.2334L7.94132 103.106C8.24009 103.494 8.7887 103.585 9.19643 103.313L9.95931 102.804C10.2185 102.632 10.3741 102.341 10.3741 102.029V99.3384L19.311 94.4924C19.1071 96.0752 18.9964 98.1592 19.147 100.237C19.3309 102.774 19.9108 105.412 21.2892 107.086C23.6021 109.894 30.1973 113.977 38.8029 110.888C40.5211 110.271 44.1228 108.438 48.7914 105.898C49.0357 105.765 49.283 105.631 49.5333 105.494L53.2831 111.989C53.6771 112.672 54.5499 112.905 55.2324 112.511C55.915 112.117 56.1488 111.245 55.7548 110.562L52.0339 104.117C53.8801 103.093 55.8481 101.989 57.9018 100.826L61.8676 107.695C62.2616 108.377 63.1344 108.611 63.8169 108.217C64.4995 107.823 64.7334 106.95 64.3393 106.268L60.3831 99.4153C62.0208 98.4814 63.7013 97.5176 65.4077 96.5341C65.6152 96.4145 65.8231 96.2946 66.0313 96.1745L70.4521 103.832C70.8461 104.514 71.7189 104.748 72.4014 104.354C73.084 103.96 73.3179 103.087 72.9238 102.405L68.5021 94.7458C79.9144 88.1327 92.0288 80.9281 100.064 76.074C101.86 74.9895 103.033 72.4475 103.37 69.5473C103.711 66.6162 103.219 63.1812 101.531 60.1598C100.64 58.5654 99.3602 57.1655 98.1593 56.2193C97.6635 55.8286 97.1701 55.5066 96.7122 55.2797C98.1249 54.6147 99.4515 53.9251 100.594 53.3182C100.933 53.1382 101.254 52.9666 101.555 52.8055C102.623 52.2343 103.442 51.7963 103.937 51.5898C109.774 49.1579 118.208 49.7741 126.018 56.5289L127 57.3782L126.845 56.0892C126.424 52.5813 125.135 48.5103 123.342 44.3621C121.947 41.1135 120.244 37.8224 118.389 34.7082C117.46 33.1484 116.491 31.6281 115.499 30.1755C114.12 28.1392 112.712 26.2482 111.335 24.5849C109.078 21.8586 106.879 19.7122 105.006 18.5528ZM67.9998 93.8758C79.4055 87.2666 91.514 80.0654 99.5449 75.2141C100.947 74.3669 102.049 72.2083 102.372 69.4313C102.692 66.6853 102.228 63.4665 100.654 60.6498C99.8341 59.1826 98.6455 57.8814 97.5375 57.0084C96.9831 56.5715 96.465 56.2546 96.0392 56.0757C95.58 55.8827 95.3491 55.9001 95.2825 55.929L94.8817 55.0078C96.788 54.1757 98.6078 53.2358 100.123 52.431C100.442 52.2615 100.75 52.0969 101.043 51.94L101.044 51.9396L101.044 51.9394C102.123 51.3619 103.006 50.8895 103.551 50.6625C109.506 48.1811 117.861 48.7327 125.648 54.9175C125.091 51.8025 123.947 48.3181 122.421 44.7628C120.975 41.4195 119.189 38.0068 117.253 34.7887C116.414 33.3939 115.547 32.0383 114.67 30.7435C111.552 26.1741 108.247 22.331 105.38 20.0755C105.729 23.0606 106.14 27.6229 105.713 32.1722C105.228 37.3356 103.649 42.6315 99.51 45.5111C94.5485 48.9626 81.7352 56.2913 69.0132 63.4386C64.5016 65.9732 59.9995 68.4862 55.8563 70.7988L55.8556 70.7992L55.8553 70.7993C55.5564 70.9662 55.2594 71.1319 54.9644 71.2966L56.3445 73.6872C67.9192 67.7846 81.0648 61.2391 90.581 56.8864L90.7321 56.8172L90.8947 56.8519C92.4206 57.1773 95.9663 58.6605 98.2875 62.0529C99.465 63.7739 100.081 65.9658 100.098 67.9558C100.114 69.9235 99.5411 71.8324 98.1684 72.8307L98.1464 72.8466L98.123 72.8601L66.3838 91.0766L67.9998 93.8758ZM65.8815 90.2066L97.5984 72.0029C98.5734 71.2783 99.1085 69.7828 99.0931 67.9643C99.0778 66.1552 98.5131 64.1617 97.4584 62.6202C95.3954 59.6051 92.2664 58.2243 90.8435 57.871C81.3694 62.2103 68.3399 68.6982 56.8475 74.5584L65.8815 90.2066ZM54.3026 75.8586L63.4062 91.6273L57.7584 94.8688L48.5045 78.8398C50.357 77.8831 52.2993 76.8841 54.3026 75.8586ZM53.7997 74.9875L52.4721 72.688C50.4381 73.824 48.5274 74.8924 46.789 75.8682L48.0017 77.9688C49.8537 77.0123 51.796 76.0133 53.7997 74.9875ZM45.4642 79.2819L44.3015 77.2679C42.0198 78.5555 40.1637 79.6158 38.8887 80.3692C38.7506 80.4508 38.6101 80.5336 38.4673 80.6176L39.4981 82.4031L40.1108 82.0709L40.1172 82.0674C41.7517 81.2116 43.5464 80.2763 45.4642 79.2819ZM36.9883 83.7641L36.0004 82.0529C33.7298 83.3631 31.1172 84.8469 28.3997 86.3903C21.3194 90.4115 13.5275 94.837 9.21914 97.6475C9.00634 97.7863 8.75572 97.8268 8.51803 97.7759L5.87625 97.2098L5.04063 97.6873L8.69597 102.439L9.36956 101.99V99.295C9.36956 98.9533 9.55667 98.639 9.85707 98.4761L19.7203 93.1277L20.6391 92.6295L20.4541 93.6581C20.1749 95.2108 19.9699 97.6945 20.149 100.165C20.3297 102.658 20.8945 105.026 22.0646 106.447C24.1588 108.99 30.3274 112.863 38.4635 109.942C40.0936 109.357 43.6214 107.567 48.3114 105.016C48.5484 104.887 48.7882 104.756 49.0309 104.624L47.4753 101.929L37.1661 107.846L37.1527 107.854L37.1388 107.861C33.9884 109.419 27.6365 109.54 23.8507 104.492C21.9528 101.962 21.469 98.8534 21.8047 96.1941C21.9728 94.8625 22.3479 93.6269 22.8682 92.6149C23.3848 91.6102 24.0646 90.7876 24.8651 90.338L24.8716 90.3344L36.9883 83.7641ZM46.973 101.059L36.6798 106.967C33.8453 108.36 28.0749 108.45 24.6543 103.889C22.9463 101.612 22.4906 98.7816 22.8013 96.3199C22.9565 95.091 23.3009 93.9704 23.7617 93.0742C24.2253 92.1724 24.7868 91.5353 25.354 91.2156L25.357 91.2139L37.4907 84.6343L46.973 101.059ZM49.4484 99.6383L40.0005 83.2734L40.5833 82.9574L40.5864 82.9558C42.2306 82.0948 44.0368 81.1536 45.967 80.1528L55.283 96.2895L49.4484 99.6383ZM49.9506 100.508L51.5315 103.247C53.3769 102.224 55.345 101.119 57.3995 99.9556L55.7853 97.1595L49.9506 100.508ZM58.2607 95.7388L63.9084 92.4973L65.5291 95.3045C65.321 95.4245 65.1134 95.5443 64.9061 95.6637C63.199 96.6476 61.5184 97.6115 59.8809 98.5452L58.2607 95.7388Z" fill="white"/>
</svg>
