<svg width="130" height="130" viewBox="0 0 130 130" fill="none" xmlns="http://www.w3.org/2000/svg">
<g opacity="0.35">
<path d="M89.8822 13.5899C89.1747 13.0592 87.229 11.4674 85.6371 12.5286C84.2712 13.4391 42.8107 60.3405 18.5773 88.4107M18.5773 88.4107C17.2271 89.9747 15.9296 91.4787 14.6948 92.9111C14.3113 93.3559 14.3621 94.0275 14.808 94.4097L16.928 96.2269C17.3654 96.6018 18.0221 96.5593 18.4075 96.131L21.7441 92.4237C22.1501 91.9726 22.0958 91.2736 21.6251 90.8906L18.5773 88.4107Z" stroke="white" stroke-width="1.06129" stroke-linecap="round"/>
<path d="M92.0049 12.0007L15.592 100.088" stroke="white" stroke-width="2.56916" stroke-linecap="round"/>
<path d="M99.2941 22.4808L101.863 23.8205M100.355 16.113L104.432 18.1684" stroke="white" stroke-width="2.56916" stroke-linecap="round"/>
<path d="M109.569 24.965L112.753 26.5569M112.753 21.2505L116.998 23.3731" stroke="white" stroke-width="2.56916" stroke-linecap="round"/>
<path d="M67.1607 96.4867L62.246 93.6413C60.9742 92.905 59.3571 93.6527 59.0942 95.0986L57.5422 103.635C57.1822 105.614 59.5221 106.937 61.0327 105.608L67.4995 99.9171C68.5888 98.9584 68.4165 97.2137 67.1607 96.4867Z" stroke="white" stroke-width="1.06129" stroke-linecap="round"/>
<path d="M101.024 27.9197L104.738 30.0423M66.532 82.5761L74.4917 87.3519M65.4707 84.168L73.4304 88.9438" stroke="white" stroke-width="1.06129" stroke-linecap="round"/>
<path d="M112.868 19.6149L103.798 30.9532C103.717 31.054 103.646 31.1619 103.585 31.2756L90.4104 55.8279L81.3387 72.7343C80.7817 73.7723 79.4861 74.1582 78.4519 73.5942L77.4096 73.0256L76.4615 72.5085C75.3915 71.9248 75.0317 70.562 75.6742 69.5263L85.6817 53.3918L100.404 29.6556C100.463 29.5605 100.514 29.4609 100.558 29.3577L106.378 15.4776C106.9 14.2335 108.435 13.7854 109.544 14.5533L112.419 16.5437C113.43 17.2439 113.637 18.6543 112.868 19.6149Z" stroke="white" stroke-width="1.06129" stroke-linecap="round"/>
<path d="M91.4781 55.5138C95.4678 58.546 97.685 63.4902 97.3152 67.1882C96.7846 72.4946 94.4229 73.265 93.07 74.6179C91.7529 75.935 91.5255 78.3413 91.7868 80.9365C91.8385 81.4501 91.1857 81.7853 90.788 81.4561C87.9561 79.1124 86.6709 80.0493 85.1104 80.9856C75.8603 87.5378 81.2712 93.1276 85.3898 95.6901C85.5459 95.7872 85.641 95.9561 85.641 96.14V96.14C85.641 96.2734 85.5394 96.385 85.4074 96.4047C81.7597 96.9484 80.3346 100.479 80.3346 102.211C79.061 111.975 73.0824 116.185 70.2523 117.069C65.4765 118.562 56.4555 118.13 50.6175 113.885C44.5817 110.221 42.4218 103.623 42.1272 100.089C41.5966 93.7211 46.3724 88.9453 50.6175 85.7614C53.744 83.4166 53.8124 80.2922 53.3895 78.7068C53.3404 78.5226 53.4742 78.3324 53.6649 78.3324V78.3324C53.7508 78.3324 53.8318 78.3737 53.8852 78.441C57.1419 82.5464 66.0937 80.7291 67.0675 71.9647C67.4578 68.4522 64.9777 67.5229 63.005 67.066C62.4878 66.9462 62.457 66.2521 62.9279 66.007C64.378 65.2521 65.6841 64.0358 66.468 62.5471C66.5148 62.4582 66.5529 62.3653 66.5841 62.2698C67.615 59.1182 68.2002 55.4748 72.9046 52.8615C77.1749 51.1534 81.7894 50.7811 85.641 52.3301" stroke="white" stroke-width="2.56916" stroke-linecap="round"/>
</g>
</svg>
