<svg width="30" height="30" viewBox="0 0 30 30" fill="none" xmlns="http://www.w3.org/2000/svg">
<path d="M4.73438 9.51391V5.88149C4.73438 5.42216 5.10673 5.0498 5.56606 5.0498H10.133C10.5924 5.0498 10.9647 5.42216 10.9647 5.88149V9.51391C10.9647 9.97323 10.5924 10.3456 10.133 10.3456H5.56606C5.10673 10.3456 4.73438 9.97323 4.73438 9.51391Z" fill="black" stroke="black" stroke-width="0.831683" stroke-linecap="round"/>
<path d="M1 27.198V3.21782C1 1.99295 1.99295 1 3.21782 1H26.7822C28.007 1 29 1.99295 29 3.21782V27.198C29 28.4229 28.007 29.4158 26.7822 29.4158H3.21782C1.99295 29.4158 1 28.4229 1 27.198Z" stroke="black" stroke-width="0.780655" stroke-linecap="round"/>
<circle cx="5.05272" cy="12.5261" r="0.467275" stroke="black" stroke-width="0.311517"/>
<path d="M14.601 11.623V5.00093H16.0399C16.5304 5.00093 16.9174 5.07724 17.2008 5.22984C17.4897 5.377 17.694 5.60046 17.8139 5.90023C17.9393 6.2 18.002 6.57334 18.002 7.02027V9.45655C18.002 9.92528 17.9393 10.3204 17.8139 10.642C17.694 10.9636 17.4951 11.2088 17.2171 11.3778C16.9446 11.5413 16.5767 11.623 16.1134 11.623H14.601ZM15.5248 10.9608H16.048C16.386 10.9608 16.6258 10.8954 16.7675 10.7646C16.9092 10.6338 16.9937 10.4431 17.0209 10.1923C17.0536 9.94163 17.07 9.63914 17.07 9.28487V7.13472C17.07 6.79135 17.0482 6.51339 17.0046 6.30083C16.961 6.08827 16.8656 5.93293 16.7184 5.83483C16.5713 5.73672 16.3396 5.68767 16.0235 5.68767H15.5248V10.9608ZM19.6159 11.623V5.68767H18.4959V5.00093H21.6271V5.68767H20.5398V11.623H19.6159ZM21.8567 11.623L23.2384 8.15666L21.8812 5.00093H22.7397L23.7452 7.33911L24.6609 5.00093H25.5193L24.1295 8.23023L25.5847 11.623H24.7263L23.6471 9.12953L22.7151 11.623H21.8567Z" fill="black"/>
<path d="M15.5156 19.4232V25.7994M20.1996 19.4232V25.7994M24.8495 19.3794V25.7556" stroke="black" stroke-width="0.311517" stroke-linecap="round"/>
<path d="M15.0156 24.0291H15.9524" stroke="black" stroke-width="0.93455" stroke-linecap="round"/>
<path d="M19.7344 23.7947H20.6712" stroke="black" stroke-width="0.93455" stroke-linecap="round"/>
<path d="M24.4219 24.1072H25.3587" stroke="black" stroke-width="0.780655" stroke-linecap="round"/>
</svg>
